G04 EAGLE Gerber RS-274X export*
G75*
%MOMM*%
%FSLAX34Y34*%
%LPD*%
%INTop Copper*%
%IPPOS*%
%AMOC8*
5,1,8,0,0,1.08239X$1,22.5*%
G01*
%ADD10C,1.676400*%
%ADD11C,1.016000*%
%ADD12P,1.231672X8X22.500000*%
%ADD13C,4.445000*%
%ADD14C,2.184400*%
%ADD15R,0.949959X1.031241*%
%ADD16R,1.200000X2.500000*%
%ADD17R,1.524000X1.524000*%
%ADD18P,1.649562X8X202.500000*%
%ADD19C,1.651000*%
%ADD20R,1.651000X1.651000*%
%ADD21C,0.254000*%
%ADD22C,0.609600*%

G36*
X1013244Y628008D02*
X1013244Y628008D01*
X1013237Y628127D01*
X1013224Y628165D01*
X1013219Y628206D01*
X1013176Y628316D01*
X1013139Y628429D01*
X1013117Y628464D01*
X1013102Y628501D01*
X1013033Y628597D01*
X1012969Y628698D01*
X1012939Y628726D01*
X1012916Y628759D01*
X1012824Y628835D01*
X1012737Y628916D01*
X1012702Y628936D01*
X1012671Y628961D01*
X1012563Y629012D01*
X1012459Y629070D01*
X1012419Y629080D01*
X1012383Y629097D01*
X1012266Y629119D01*
X1012151Y629149D01*
X1012091Y629153D01*
X1012071Y629157D01*
X1012050Y629155D01*
X1011990Y629159D01*
X3810Y629159D01*
X3692Y629144D01*
X3573Y629137D01*
X3535Y629124D01*
X3494Y629119D01*
X3384Y629076D01*
X3271Y629039D01*
X3236Y629017D01*
X3199Y629002D01*
X3103Y628933D01*
X3002Y628869D01*
X2974Y628839D01*
X2941Y628816D01*
X2865Y628724D01*
X2784Y628637D01*
X2764Y628602D01*
X2739Y628571D01*
X2688Y628463D01*
X2630Y628359D01*
X2620Y628319D01*
X2603Y628283D01*
X2581Y628166D01*
X2551Y628051D01*
X2547Y627991D01*
X2543Y627971D01*
X2545Y627950D01*
X2541Y627890D01*
X2541Y3810D01*
X2556Y3692D01*
X2563Y3573D01*
X2576Y3535D01*
X2581Y3494D01*
X2624Y3384D01*
X2661Y3271D01*
X2683Y3236D01*
X2698Y3199D01*
X2767Y3103D01*
X2831Y3002D01*
X2861Y2974D01*
X2884Y2941D01*
X2976Y2865D01*
X3063Y2784D01*
X3098Y2764D01*
X3129Y2739D01*
X3237Y2688D01*
X3341Y2630D01*
X3381Y2620D01*
X3417Y2603D01*
X3534Y2581D01*
X3649Y2551D01*
X3709Y2547D01*
X3729Y2543D01*
X3750Y2545D01*
X3810Y2541D01*
X1011990Y2541D01*
X1012108Y2556D01*
X1012227Y2563D01*
X1012265Y2576D01*
X1012306Y2581D01*
X1012416Y2624D01*
X1012529Y2661D01*
X1012564Y2683D01*
X1012601Y2698D01*
X1012697Y2767D01*
X1012798Y2831D01*
X1012826Y2861D01*
X1012859Y2884D01*
X1012935Y2976D01*
X1013016Y3063D01*
X1013036Y3098D01*
X1013061Y3129D01*
X1013112Y3237D01*
X1013170Y3341D01*
X1013180Y3381D01*
X1013197Y3417D01*
X1013219Y3534D01*
X1013249Y3649D01*
X1013253Y3709D01*
X1013257Y3729D01*
X1013255Y3750D01*
X1013259Y3810D01*
X1013259Y627890D01*
X1013244Y628008D01*
G37*
%LPC*%
G36*
X76200Y557531D02*
X76200Y557531D01*
X76318Y557546D01*
X76437Y557553D01*
X76475Y557566D01*
X76516Y557571D01*
X76626Y557614D01*
X76739Y557651D01*
X76774Y557673D01*
X76811Y557688D01*
X76907Y557758D01*
X77008Y557821D01*
X77036Y557851D01*
X77069Y557874D01*
X77145Y557966D01*
X77226Y558053D01*
X77246Y558088D01*
X77271Y558119D01*
X77322Y558227D01*
X77380Y558331D01*
X77390Y558371D01*
X77407Y558407D01*
X77429Y558524D01*
X77459Y558639D01*
X77463Y558700D01*
X77467Y558720D01*
X77465Y558740D01*
X77469Y558800D01*
X77469Y608331D01*
X938531Y608331D01*
X938531Y558800D01*
X938546Y558682D01*
X938553Y558563D01*
X938566Y558525D01*
X938571Y558484D01*
X938614Y558374D01*
X938651Y558261D01*
X938673Y558226D01*
X938688Y558189D01*
X938758Y558093D01*
X938821Y557992D01*
X938851Y557964D01*
X938874Y557931D01*
X938966Y557856D01*
X939053Y557774D01*
X939088Y557754D01*
X939119Y557729D01*
X939227Y557678D01*
X939331Y557620D01*
X939371Y557610D01*
X939407Y557593D01*
X939524Y557571D01*
X939639Y557541D01*
X939700Y557537D01*
X939720Y557533D01*
X939740Y557535D01*
X939800Y557531D01*
X989331Y557531D01*
X989331Y77469D01*
X956175Y77469D01*
X956051Y77454D01*
X955925Y77444D01*
X955893Y77434D01*
X955860Y77429D01*
X955743Y77383D01*
X955624Y77343D01*
X955595Y77325D01*
X955564Y77312D01*
X955462Y77239D01*
X955357Y77170D01*
X955334Y77145D01*
X955307Y77126D01*
X955226Y77029D01*
X955141Y76936D01*
X955125Y76907D01*
X955104Y76881D01*
X955050Y76767D01*
X954991Y76656D01*
X954983Y76623D01*
X954968Y76593D01*
X954945Y76469D01*
X954915Y76347D01*
X954915Y76314D01*
X954909Y76281D01*
X954916Y76155D01*
X954918Y76029D01*
X954927Y75981D01*
X954928Y75963D01*
X954935Y75943D01*
X954949Y75871D01*
X955092Y75341D01*
X955092Y72224D01*
X948906Y72224D01*
X948788Y72209D01*
X948669Y72202D01*
X948631Y72189D01*
X948591Y72184D01*
X948480Y72140D01*
X948367Y72104D01*
X948332Y72082D01*
X948295Y72067D01*
X948199Y71997D01*
X948098Y71934D01*
X948070Y71904D01*
X948038Y71880D01*
X947962Y71789D01*
X947880Y71702D01*
X947861Y71667D01*
X947835Y71635D01*
X947784Y71528D01*
X947727Y71424D01*
X947716Y71384D01*
X947699Y71348D01*
X947677Y71231D01*
X947647Y71116D01*
X947643Y71055D01*
X947639Y71035D01*
X947641Y71015D01*
X947637Y70955D01*
X947637Y70014D01*
X946696Y70014D01*
X946578Y69999D01*
X946459Y69992D01*
X946421Y69979D01*
X946381Y69974D01*
X946270Y69930D01*
X946157Y69894D01*
X946122Y69872D01*
X946085Y69857D01*
X945989Y69787D01*
X945888Y69724D01*
X945860Y69694D01*
X945828Y69670D01*
X945752Y69579D01*
X945670Y69492D01*
X945651Y69457D01*
X945625Y69425D01*
X945574Y69318D01*
X945517Y69214D01*
X945506Y69174D01*
X945489Y69138D01*
X945467Y69021D01*
X945437Y68906D01*
X945433Y68845D01*
X945429Y68825D01*
X945431Y68805D01*
X945427Y68745D01*
X945427Y62153D01*
X942717Y62153D01*
X942070Y62326D01*
X941491Y62661D01*
X941018Y63134D01*
X940953Y63246D01*
X940878Y63346D01*
X940807Y63450D01*
X940781Y63472D01*
X940761Y63499D01*
X940663Y63577D01*
X940568Y63661D01*
X940538Y63676D01*
X940512Y63697D01*
X940397Y63748D01*
X940285Y63805D01*
X940252Y63812D01*
X940222Y63826D01*
X940097Y63847D01*
X939975Y63875D01*
X939941Y63874D01*
X939908Y63879D01*
X939782Y63869D01*
X939657Y63865D01*
X939624Y63856D01*
X939591Y63853D01*
X939472Y63812D01*
X939351Y63776D01*
X939322Y63759D01*
X939291Y63748D01*
X939185Y63679D01*
X939077Y63615D01*
X939041Y63583D01*
X939026Y63573D01*
X939011Y63557D01*
X938957Y63508D01*
X938902Y63454D01*
X938842Y63376D01*
X938774Y63304D01*
X938745Y63251D01*
X938707Y63203D01*
X938668Y63112D01*
X938620Y63026D01*
X938605Y62967D01*
X938581Y62911D01*
X938566Y62813D01*
X938541Y62718D01*
X938535Y62617D01*
X938531Y62597D01*
X938533Y62585D01*
X938531Y62557D01*
X938531Y26669D01*
X77469Y26669D01*
X77469Y76200D01*
X77454Y76318D01*
X77447Y76437D01*
X77434Y76475D01*
X77429Y76516D01*
X77386Y76626D01*
X77349Y76739D01*
X77327Y76774D01*
X77312Y76811D01*
X77243Y76907D01*
X77179Y77008D01*
X77149Y77036D01*
X77126Y77069D01*
X77034Y77145D01*
X76947Y77226D01*
X76912Y77246D01*
X76881Y77271D01*
X76773Y77322D01*
X76669Y77380D01*
X76629Y77390D01*
X76593Y77407D01*
X76476Y77429D01*
X76361Y77459D01*
X76301Y77463D01*
X76281Y77467D01*
X76260Y77465D01*
X76200Y77469D01*
X26669Y77469D01*
X26669Y557531D01*
X76200Y557531D01*
G37*
%LPD*%
%LPC*%
G36*
X40639Y599439D02*
X40639Y599439D01*
X40639Y621536D01*
X42255Y621354D01*
X44967Y620735D01*
X47592Y619817D01*
X50099Y618610D01*
X52454Y617130D01*
X54629Y615395D01*
X56595Y613429D01*
X58330Y611254D01*
X59810Y608899D01*
X61017Y606392D01*
X61935Y603767D01*
X62554Y601055D01*
X62736Y599439D01*
X40639Y599439D01*
G37*
%LPD*%
%LPC*%
G36*
X980439Y599439D02*
X980439Y599439D01*
X980439Y621536D01*
X982055Y621354D01*
X984767Y620735D01*
X987392Y619817D01*
X989899Y618610D01*
X992254Y617130D01*
X994429Y615395D01*
X996395Y613429D01*
X998130Y611254D01*
X999610Y608899D01*
X1000817Y606392D01*
X1001735Y603767D01*
X1002354Y601055D01*
X1002536Y599439D01*
X980439Y599439D01*
G37*
%LPD*%
%LPC*%
G36*
X40639Y40639D02*
X40639Y40639D01*
X40639Y62736D01*
X42255Y62554D01*
X44967Y61935D01*
X47592Y61017D01*
X50099Y59810D01*
X52454Y58330D01*
X54629Y56595D01*
X56595Y54629D01*
X58330Y52454D01*
X59810Y50099D01*
X61017Y47592D01*
X61935Y44967D01*
X62554Y42255D01*
X62736Y40639D01*
X40639Y40639D01*
G37*
%LPD*%
%LPC*%
G36*
X980439Y40639D02*
X980439Y40639D01*
X980439Y62736D01*
X982055Y62554D01*
X984767Y61935D01*
X987392Y61017D01*
X989899Y59810D01*
X992254Y58330D01*
X994429Y56595D01*
X996395Y54629D01*
X998130Y52454D01*
X999610Y50099D01*
X1000817Y47592D01*
X1001735Y44967D01*
X1002354Y42255D01*
X1002536Y40639D01*
X980439Y40639D01*
G37*
%LPD*%
%LPC*%
G36*
X40639Y594361D02*
X40639Y594361D01*
X62736Y594361D01*
X62554Y592745D01*
X61935Y590033D01*
X61017Y587408D01*
X59810Y584901D01*
X58330Y582546D01*
X56595Y580371D01*
X54629Y578405D01*
X52454Y576670D01*
X50099Y575190D01*
X47592Y573983D01*
X44967Y573065D01*
X42255Y572446D01*
X40639Y572264D01*
X40639Y594361D01*
G37*
%LPD*%
%LPC*%
G36*
X980439Y594361D02*
X980439Y594361D01*
X1002536Y594361D01*
X1002354Y592745D01*
X1001735Y590033D01*
X1000817Y587408D01*
X999610Y584901D01*
X998130Y582546D01*
X996395Y580371D01*
X994429Y578405D01*
X992254Y576670D01*
X989899Y575190D01*
X987392Y573983D01*
X984767Y573065D01*
X982055Y572446D01*
X980439Y572264D01*
X980439Y594361D01*
G37*
%LPD*%
%LPC*%
G36*
X13464Y599439D02*
X13464Y599439D01*
X13646Y601055D01*
X14265Y603767D01*
X15183Y606392D01*
X16390Y608899D01*
X17870Y611254D01*
X19605Y613429D01*
X21571Y615395D01*
X23746Y617130D01*
X26101Y618610D01*
X28608Y619817D01*
X31233Y620735D01*
X33945Y621354D01*
X35561Y621536D01*
X35561Y599439D01*
X13464Y599439D01*
G37*
%LPD*%
%LPC*%
G36*
X953264Y599439D02*
X953264Y599439D01*
X953446Y601055D01*
X954065Y603767D01*
X954983Y606392D01*
X956190Y608899D01*
X957670Y611254D01*
X959405Y613429D01*
X961371Y615395D01*
X963546Y617130D01*
X965901Y618610D01*
X968408Y619817D01*
X971033Y620735D01*
X973745Y621354D01*
X975361Y621536D01*
X975361Y599439D01*
X953264Y599439D01*
G37*
%LPD*%
%LPC*%
G36*
X13464Y40639D02*
X13464Y40639D01*
X13646Y42255D01*
X14265Y44967D01*
X15183Y47592D01*
X16390Y50099D01*
X17870Y52454D01*
X19605Y54629D01*
X21571Y56595D01*
X23746Y58330D01*
X26101Y59810D01*
X28608Y61017D01*
X31233Y61935D01*
X33945Y62554D01*
X35561Y62736D01*
X35561Y40639D01*
X13464Y40639D01*
G37*
%LPD*%
%LPC*%
G36*
X953264Y40639D02*
X953264Y40639D01*
X953446Y42255D01*
X954065Y44967D01*
X954983Y47592D01*
X956190Y50099D01*
X957670Y52454D01*
X959405Y54629D01*
X961371Y56595D01*
X963546Y58330D01*
X965901Y59810D01*
X968408Y61017D01*
X971033Y61935D01*
X973745Y62554D01*
X975361Y62736D01*
X975361Y40639D01*
X953264Y40639D01*
G37*
%LPD*%
%LPC*%
G36*
X980439Y35561D02*
X980439Y35561D01*
X1002536Y35561D01*
X1002354Y33945D01*
X1001735Y31233D01*
X1000817Y28608D01*
X999610Y26101D01*
X998130Y23746D01*
X996395Y21571D01*
X994429Y19605D01*
X992254Y17870D01*
X989899Y16390D01*
X987392Y15183D01*
X984767Y14265D01*
X982055Y13646D01*
X980439Y13464D01*
X980439Y35561D01*
G37*
%LPD*%
%LPC*%
G36*
X40639Y35561D02*
X40639Y35561D01*
X62736Y35561D01*
X62554Y33945D01*
X61935Y31233D01*
X61017Y28608D01*
X59810Y26101D01*
X58330Y23746D01*
X56595Y21571D01*
X54629Y19605D01*
X52454Y17870D01*
X50099Y16390D01*
X47592Y15183D01*
X44967Y14265D01*
X42255Y13646D01*
X40639Y13464D01*
X40639Y35561D01*
G37*
%LPD*%
%LPC*%
G36*
X33945Y572446D02*
X33945Y572446D01*
X31233Y573065D01*
X28608Y573983D01*
X26101Y575190D01*
X23746Y576670D01*
X21571Y578405D01*
X19605Y580371D01*
X17870Y582546D01*
X16390Y584901D01*
X15183Y587408D01*
X14265Y590033D01*
X13646Y592745D01*
X13464Y594361D01*
X35561Y594361D01*
X35561Y572264D01*
X33945Y572446D01*
G37*
%LPD*%
%LPC*%
G36*
X973745Y572446D02*
X973745Y572446D01*
X971033Y573065D01*
X968408Y573983D01*
X965901Y575190D01*
X963546Y576670D01*
X961371Y578405D01*
X959405Y580371D01*
X957670Y582546D01*
X956190Y584901D01*
X954983Y587408D01*
X954065Y590033D01*
X953446Y592745D01*
X953264Y594361D01*
X975361Y594361D01*
X975361Y572264D01*
X973745Y572446D01*
G37*
%LPD*%
%LPC*%
G36*
X973745Y13646D02*
X973745Y13646D01*
X971033Y14265D01*
X968408Y15183D01*
X965901Y16390D01*
X963546Y17870D01*
X961371Y19605D01*
X959405Y21571D01*
X957670Y23746D01*
X956190Y26101D01*
X954983Y28608D01*
X954065Y31233D01*
X953446Y33945D01*
X953264Y35561D01*
X975361Y35561D01*
X975361Y13464D01*
X973745Y13646D01*
G37*
%LPD*%
%LPC*%
G36*
X33945Y13646D02*
X33945Y13646D01*
X31233Y14265D01*
X28608Y15183D01*
X26101Y16390D01*
X23746Y17870D01*
X21571Y19605D01*
X19605Y21571D01*
X17870Y23746D01*
X16390Y26101D01*
X15183Y28608D01*
X14265Y31233D01*
X13646Y33945D01*
X13464Y35561D01*
X35561Y35561D01*
X35561Y13464D01*
X33945Y13646D01*
G37*
%LPD*%
%LPC*%
G36*
X950175Y62153D02*
X950175Y62153D01*
X950175Y67476D01*
X955091Y67476D01*
X955092Y64359D01*
X954918Y63713D01*
X954584Y63134D01*
X954111Y62661D01*
X953532Y62326D01*
X952885Y62153D01*
X950175Y62153D01*
G37*
%LPD*%
%LPC*%
G36*
X977899Y596899D02*
X977899Y596899D01*
X977899Y596901D01*
X977901Y596901D01*
X977901Y596899D01*
X977899Y596899D01*
G37*
%LPD*%
%LPC*%
G36*
X38099Y596899D02*
X38099Y596899D01*
X38099Y596901D01*
X38101Y596901D01*
X38101Y596899D01*
X38099Y596899D01*
G37*
%LPD*%
%LPC*%
G36*
X977899Y38099D02*
X977899Y38099D01*
X977899Y38101D01*
X977901Y38101D01*
X977901Y38099D01*
X977899Y38099D01*
G37*
%LPD*%
%LPC*%
G36*
X38099Y38099D02*
X38099Y38099D01*
X38099Y38101D01*
X38101Y38101D01*
X38101Y38099D01*
X38099Y38099D01*
G37*
%LPD*%
D10*
X162600Y561400D03*
X188000Y561400D03*
X213400Y561400D03*
X238800Y561400D03*
X264200Y561400D03*
X289600Y561400D03*
X315000Y561400D03*
X340400Y561400D03*
X365800Y561400D03*
X391200Y561400D03*
X416600Y561400D03*
X442000Y561400D03*
X467400Y561400D03*
X492800Y561400D03*
X518200Y561400D03*
X543600Y561400D03*
D11*
X977900Y127000D03*
X977900Y127000D03*
X38100Y127000D03*
X38100Y508000D03*
X38100Y127000D03*
X38100Y508000D03*
D12*
X444500Y114300D03*
X469900Y114300D03*
D13*
X38100Y38100D03*
X38100Y596900D03*
X977900Y596900D03*
X977900Y38100D03*
D14*
X140500Y152400D03*
X190500Y152400D03*
X240500Y152400D03*
D15*
X931799Y69850D03*
X947801Y69850D03*
X804799Y101600D03*
X820801Y101600D03*
D16*
X711600Y74100D03*
X736600Y74100D03*
X761600Y74100D03*
X711600Y129100D03*
X736600Y129100D03*
X761600Y129100D03*
D17*
X893400Y187700D03*
D18*
X893400Y213100D03*
X868000Y187700D03*
X868000Y213100D03*
X842600Y187700D03*
X842600Y213100D03*
X817200Y187700D03*
X817200Y213100D03*
X791800Y187700D03*
X791800Y213100D03*
X766400Y187700D03*
X766400Y213100D03*
X741000Y187700D03*
X741000Y213100D03*
X715600Y187700D03*
X715600Y213100D03*
X690200Y187700D03*
X690200Y213100D03*
X664800Y187700D03*
X664800Y213100D03*
X639400Y187700D03*
X639400Y213100D03*
X614000Y187700D03*
X614000Y213100D03*
X588600Y187700D03*
X588600Y213100D03*
X563200Y187700D03*
X563200Y213100D03*
X537800Y187700D03*
X537800Y213100D03*
X512400Y187700D03*
X512400Y213100D03*
X487000Y187700D03*
X487000Y213100D03*
X461600Y187700D03*
X461600Y213100D03*
D17*
X893400Y441700D03*
D18*
X893400Y467100D03*
X868000Y441700D03*
X868000Y467100D03*
X842600Y441700D03*
X842600Y467100D03*
X817200Y441700D03*
X817200Y467100D03*
X791800Y441700D03*
X791800Y467100D03*
X766400Y441700D03*
X766400Y467100D03*
X741000Y441700D03*
X741000Y467100D03*
X715600Y441700D03*
X715600Y467100D03*
X690200Y441700D03*
X690200Y467100D03*
X664800Y441700D03*
X664800Y467100D03*
X639400Y441700D03*
X639400Y467100D03*
X614000Y441700D03*
X614000Y467100D03*
X588600Y441700D03*
X588600Y467100D03*
X563200Y441700D03*
X563200Y467100D03*
X537800Y441700D03*
X537800Y467100D03*
X512400Y441700D03*
X512400Y467100D03*
X487000Y441700D03*
X487000Y467100D03*
X461600Y441700D03*
X461600Y467100D03*
D19*
X203200Y266700D03*
X203200Y241300D03*
D20*
X203200Y419100D03*
D19*
X203200Y393700D03*
X203200Y368300D03*
X203200Y317500D03*
X203200Y292100D03*
X203200Y342900D03*
D21*
X736600Y74100D02*
X736600Y50800D01*
D22*
X736600Y50800D03*
D21*
X736600Y74100D02*
X736600Y129100D01*
X488950Y114300D02*
X469900Y114300D01*
D22*
X488950Y114300D03*
D21*
X820801Y101600D02*
X831850Y101600D01*
D22*
X831850Y101600D03*
D21*
X920750Y69850D02*
X931799Y69850D01*
D22*
X920750Y69850D03*
D21*
X789100Y101600D02*
X761600Y74100D01*
X789100Y101600D02*
X804799Y101600D01*
X777299Y129100D01*
X761600Y129100D01*
X922850Y129100D01*
X952500Y158750D01*
X952500Y412750D01*
X898150Y467100D02*
X893400Y467100D01*
X898150Y467100D02*
X952500Y412750D01*
X213400Y556300D02*
X213400Y561400D01*
X190500Y533400D02*
X190500Y152400D01*
X190500Y533400D02*
X213400Y556300D01*
X444500Y114300D02*
X527050Y31750D01*
X876300Y488950D02*
X901700Y488950D01*
X876300Y488950D02*
X868000Y480650D01*
X868000Y467100D01*
X863600Y31750D02*
X527050Y31750D01*
X863600Y31750D02*
X965200Y133350D01*
X965200Y425450D01*
X901700Y488950D01*
X311250Y488950D02*
X238800Y561400D01*
X668350Y488950D02*
X690200Y467100D01*
X668350Y488950D02*
X311250Y488950D01*
X349350Y501650D02*
X289600Y561400D01*
X791800Y471850D02*
X791800Y467100D01*
X762000Y501650D02*
X349350Y501650D01*
X762000Y501650D02*
X791800Y471850D01*
X457300Y520700D02*
X416600Y561400D01*
X457300Y520700D02*
X800100Y520700D01*
X842600Y478200D01*
X842600Y467100D01*
X421650Y573592D02*
X419100Y573592D01*
X417008Y573592D01*
X433842Y561400D02*
X442000Y561400D01*
X433842Y561400D02*
X421650Y573592D01*
X417008Y573592D02*
X408492Y573592D01*
X402371Y567471D01*
X403392Y566450D01*
X403392Y555458D02*
X450850Y508000D01*
X403392Y555458D02*
X403392Y566450D01*
X815600Y467100D02*
X817200Y467100D01*
X774700Y508000D02*
X450850Y508000D01*
X774700Y508000D02*
X815600Y467100D01*
X839800Y241300D02*
X868000Y213100D01*
X63500Y165100D02*
X63500Y476250D01*
X139700Y552450D02*
X139700Y565150D01*
X171450Y596900D01*
X419100Y596900D01*
X442408Y573592D02*
X447050Y573592D01*
X459242Y561400D02*
X467400Y561400D01*
X459242Y561400D02*
X447050Y573592D01*
X438150Y241300D02*
X839800Y241300D01*
X438150Y241300D02*
X311150Y114300D01*
X114300Y114300D01*
X63500Y165100D01*
X63500Y476250D02*
X139700Y552450D01*
X419100Y596900D02*
X442408Y573592D01*
X856570Y462366D02*
X863266Y455670D01*
X856570Y462366D02*
X856570Y471835D01*
X893400Y421072D02*
X893400Y213100D01*
X893400Y421072D02*
X881970Y432502D01*
X881970Y443895D01*
X870195Y455670D01*
X863266Y455670D01*
X856570Y471835D02*
X857250Y472515D01*
X857250Y533400D01*
X806450Y584200D01*
X515600Y584200D02*
X492800Y561400D01*
X515600Y584200D02*
X806450Y584200D01*
M02*
