G04 EAGLE Gerber RS-274X export*
G75*
%MOMM*%
%FSLAX34Y34*%
%LPD*%
%INCopper Layer 2*%
%IPPOS*%
%AMOC8*
5,1,8,0,0,1.08239X$1,22.5*%
G01*
%ADD10C,1.400000*%
%ADD11C,1.137919*%
%ADD12C,4.191000*%
%ADD13C,1.680000*%
%ADD14C,1.244600*%
%ADD15C,0.609600*%

G36*
X1012108Y2556D02*
X1012108Y2556D01*
X1012227Y2563D01*
X1012265Y2576D01*
X1012306Y2581D01*
X1012416Y2624D01*
X1012529Y2661D01*
X1012564Y2683D01*
X1012601Y2698D01*
X1012697Y2767D01*
X1012798Y2831D01*
X1012826Y2861D01*
X1012859Y2884D01*
X1012935Y2976D01*
X1013016Y3063D01*
X1013036Y3098D01*
X1013061Y3129D01*
X1013112Y3237D01*
X1013170Y3341D01*
X1013180Y3381D01*
X1013197Y3417D01*
X1013219Y3534D01*
X1013249Y3649D01*
X1013253Y3709D01*
X1013257Y3729D01*
X1013255Y3750D01*
X1013259Y3810D01*
X1013259Y627890D01*
X1013244Y628008D01*
X1013237Y628127D01*
X1013224Y628165D01*
X1013219Y628206D01*
X1013176Y628316D01*
X1013139Y628429D01*
X1013117Y628464D01*
X1013102Y628501D01*
X1013033Y628597D01*
X1012969Y628698D01*
X1012939Y628726D01*
X1012916Y628759D01*
X1012824Y628835D01*
X1012737Y628916D01*
X1012702Y628936D01*
X1012671Y628961D01*
X1012563Y629012D01*
X1012459Y629070D01*
X1012419Y629080D01*
X1012383Y629097D01*
X1012266Y629119D01*
X1012151Y629149D01*
X1012091Y629153D01*
X1012071Y629157D01*
X1012050Y629155D01*
X1011990Y629159D01*
X3810Y629159D01*
X3692Y629144D01*
X3573Y629137D01*
X3535Y629124D01*
X3494Y629119D01*
X3384Y629076D01*
X3271Y629039D01*
X3236Y629017D01*
X3199Y629002D01*
X3103Y628933D01*
X3002Y628869D01*
X2974Y628839D01*
X2941Y628816D01*
X2865Y628724D01*
X2784Y628637D01*
X2764Y628602D01*
X2739Y628571D01*
X2688Y628463D01*
X2630Y628359D01*
X2620Y628319D01*
X2603Y628283D01*
X2581Y628166D01*
X2551Y628051D01*
X2547Y627991D01*
X2543Y627971D01*
X2545Y627950D01*
X2541Y627890D01*
X2541Y3810D01*
X2556Y3692D01*
X2563Y3573D01*
X2576Y3535D01*
X2581Y3494D01*
X2624Y3384D01*
X2661Y3271D01*
X2683Y3236D01*
X2698Y3199D01*
X2767Y3103D01*
X2831Y3002D01*
X2861Y2974D01*
X2884Y2941D01*
X2976Y2865D01*
X3063Y2784D01*
X3098Y2764D01*
X3129Y2739D01*
X3237Y2688D01*
X3341Y2630D01*
X3381Y2620D01*
X3417Y2603D01*
X3534Y2581D01*
X3649Y2551D01*
X3709Y2547D01*
X3729Y2543D01*
X3750Y2545D01*
X3810Y2541D01*
X1011990Y2541D01*
X1012108Y2556D01*
G37*
%LPC*%
G36*
X973226Y573404D02*
X973226Y573404D01*
X964591Y576981D01*
X957981Y583591D01*
X954404Y592226D01*
X954404Y601574D01*
X957981Y610209D01*
X964591Y616819D01*
X973226Y620396D01*
X982574Y620396D01*
X991209Y616819D01*
X997819Y610209D01*
X1001396Y601574D01*
X1001396Y592226D01*
X997819Y583591D01*
X991209Y576981D01*
X982574Y573404D01*
X973226Y573404D01*
G37*
%LPD*%
%LPC*%
G36*
X33426Y573404D02*
X33426Y573404D01*
X24791Y576981D01*
X18181Y583591D01*
X14604Y592226D01*
X14604Y601574D01*
X18181Y610209D01*
X24791Y616819D01*
X33426Y620396D01*
X42774Y620396D01*
X51409Y616819D01*
X58019Y610209D01*
X61596Y601574D01*
X61596Y592226D01*
X58019Y583591D01*
X51409Y576981D01*
X42774Y573404D01*
X33426Y573404D01*
G37*
%LPD*%
%LPC*%
G36*
X33426Y14604D02*
X33426Y14604D01*
X24791Y18181D01*
X18181Y24791D01*
X14604Y33426D01*
X14604Y42774D01*
X18181Y51409D01*
X24791Y58019D01*
X33426Y61596D01*
X42774Y61596D01*
X51409Y58019D01*
X58019Y51409D01*
X61596Y42774D01*
X61596Y33426D01*
X58019Y24791D01*
X51409Y18181D01*
X42774Y14604D01*
X33426Y14604D01*
G37*
%LPD*%
%LPC*%
G36*
X973226Y14604D02*
X973226Y14604D01*
X964591Y18181D01*
X957981Y24791D01*
X954404Y33426D01*
X954404Y42774D01*
X957981Y51409D01*
X964591Y58019D01*
X973226Y61596D01*
X982574Y61596D01*
X991209Y58019D01*
X997819Y51409D01*
X1001396Y42774D01*
X1001396Y33426D01*
X997819Y24791D01*
X991209Y18181D01*
X982574Y14604D01*
X973226Y14604D01*
G37*
%LPD*%
%LPC*%
G36*
X854608Y546359D02*
X854608Y546359D01*
X849080Y548649D01*
X844849Y552880D01*
X842559Y558408D01*
X842559Y564392D01*
X844849Y569920D01*
X849080Y574151D01*
X854608Y576441D01*
X860592Y576441D01*
X866120Y574151D01*
X870351Y569920D01*
X872641Y564392D01*
X872641Y558408D01*
X870351Y552880D01*
X866120Y548649D01*
X860592Y546359D01*
X854608Y546359D01*
G37*
%LPD*%
%LPC*%
G36*
X104608Y546359D02*
X104608Y546359D01*
X99080Y548649D01*
X94849Y552880D01*
X92559Y558408D01*
X92559Y564392D01*
X94849Y569920D01*
X99080Y574151D01*
X104608Y576441D01*
X110592Y576441D01*
X116120Y574151D01*
X120351Y569920D01*
X122641Y564392D01*
X122641Y558408D01*
X120351Y552880D01*
X116120Y548649D01*
X110592Y546359D01*
X104608Y546359D01*
G37*
%LPD*%
%LPC*%
G36*
X104608Y236359D02*
X104608Y236359D01*
X99080Y238649D01*
X94849Y242880D01*
X92559Y248408D01*
X92559Y254392D01*
X94849Y259920D01*
X99080Y264151D01*
X104608Y266441D01*
X110592Y266441D01*
X116120Y264151D01*
X120351Y259920D01*
X122641Y254392D01*
X122641Y248408D01*
X120351Y242880D01*
X116120Y238649D01*
X110592Y236359D01*
X104608Y236359D01*
G37*
%LPD*%
%LPC*%
G36*
X854608Y236359D02*
X854608Y236359D01*
X849080Y238649D01*
X844849Y242880D01*
X842559Y248408D01*
X842559Y254392D01*
X844849Y259920D01*
X849080Y264151D01*
X854608Y266441D01*
X860592Y266441D01*
X866120Y264151D01*
X870351Y259920D01*
X872641Y254392D01*
X872641Y248408D01*
X870351Y242880D01*
X866120Y238649D01*
X860592Y236359D01*
X854608Y236359D01*
G37*
%LPD*%
%LPC*%
G36*
X238324Y141459D02*
X238324Y141459D01*
X234303Y143125D01*
X231225Y146203D01*
X229559Y150224D01*
X229559Y154576D01*
X231225Y158597D01*
X234303Y161675D01*
X238324Y163341D01*
X242676Y163341D01*
X246697Y161675D01*
X249775Y158597D01*
X251441Y154576D01*
X251441Y150224D01*
X249775Y146203D01*
X246697Y143125D01*
X242676Y141459D01*
X238324Y141459D01*
G37*
%LPD*%
%LPC*%
G36*
X188324Y141459D02*
X188324Y141459D01*
X184303Y143125D01*
X181225Y146203D01*
X179559Y150224D01*
X179559Y154576D01*
X181225Y158597D01*
X184303Y161675D01*
X188324Y163341D01*
X192676Y163341D01*
X196697Y161675D01*
X199775Y158597D01*
X201441Y154576D01*
X201441Y150224D01*
X199775Y146203D01*
X196697Y143125D01*
X192676Y141459D01*
X188324Y141459D01*
G37*
%LPD*%
%LPC*%
G36*
X516302Y551859D02*
X516302Y551859D01*
X512796Y553312D01*
X510112Y555996D01*
X508659Y559502D01*
X508659Y563298D01*
X510112Y566804D01*
X512796Y569488D01*
X516302Y570941D01*
X520098Y570941D01*
X523604Y569488D01*
X526288Y566804D01*
X527741Y563298D01*
X527741Y559502D01*
X526288Y555996D01*
X523604Y553312D01*
X520098Y551859D01*
X516302Y551859D01*
G37*
%LPD*%
%LPC*%
G36*
X490902Y551859D02*
X490902Y551859D01*
X487396Y553312D01*
X484712Y555996D01*
X483259Y559502D01*
X483259Y563298D01*
X484712Y566804D01*
X487396Y569488D01*
X490902Y570941D01*
X494698Y570941D01*
X498204Y569488D01*
X500888Y566804D01*
X502341Y563298D01*
X502341Y559502D01*
X500888Y555996D01*
X498204Y553312D01*
X494698Y551859D01*
X490902Y551859D01*
G37*
%LPD*%
%LPC*%
G36*
X465502Y551859D02*
X465502Y551859D01*
X461996Y553312D01*
X459312Y555996D01*
X457859Y559502D01*
X457859Y563298D01*
X459312Y566804D01*
X461996Y569488D01*
X465502Y570941D01*
X469298Y570941D01*
X472804Y569488D01*
X475488Y566804D01*
X476941Y563298D01*
X476941Y559502D01*
X475488Y555996D01*
X472804Y553312D01*
X469298Y551859D01*
X465502Y551859D01*
G37*
%LPD*%
%LPC*%
G36*
X440102Y551859D02*
X440102Y551859D01*
X436596Y553312D01*
X433912Y555996D01*
X432459Y559502D01*
X432459Y563298D01*
X433912Y566804D01*
X436596Y569488D01*
X440102Y570941D01*
X443898Y570941D01*
X447404Y569488D01*
X450088Y566804D01*
X451541Y563298D01*
X451541Y559502D01*
X450088Y555996D01*
X447404Y553312D01*
X443898Y551859D01*
X440102Y551859D01*
G37*
%LPD*%
%LPC*%
G36*
X414702Y551859D02*
X414702Y551859D01*
X411196Y553312D01*
X408512Y555996D01*
X407059Y559502D01*
X407059Y563298D01*
X408512Y566804D01*
X411196Y569488D01*
X414702Y570941D01*
X418498Y570941D01*
X422004Y569488D01*
X424688Y566804D01*
X426141Y563298D01*
X426141Y559502D01*
X424688Y555996D01*
X422004Y553312D01*
X418498Y551859D01*
X414702Y551859D01*
G37*
%LPD*%
%LPC*%
G36*
X389302Y551859D02*
X389302Y551859D01*
X385796Y553312D01*
X383112Y555996D01*
X381659Y559502D01*
X381659Y563298D01*
X383112Y566804D01*
X385796Y569488D01*
X389302Y570941D01*
X393098Y570941D01*
X396604Y569488D01*
X399288Y566804D01*
X400741Y563298D01*
X400741Y559502D01*
X399288Y555996D01*
X396604Y553312D01*
X393098Y551859D01*
X389302Y551859D01*
G37*
%LPD*%
%LPC*%
G36*
X363902Y551859D02*
X363902Y551859D01*
X360396Y553312D01*
X357712Y555996D01*
X356259Y559502D01*
X356259Y563298D01*
X357712Y566804D01*
X360396Y569488D01*
X363902Y570941D01*
X367698Y570941D01*
X371204Y569488D01*
X373888Y566804D01*
X375341Y563298D01*
X375341Y559502D01*
X373888Y555996D01*
X371204Y553312D01*
X367698Y551859D01*
X363902Y551859D01*
G37*
%LPD*%
%LPC*%
G36*
X338502Y551859D02*
X338502Y551859D01*
X334996Y553312D01*
X332312Y555996D01*
X330859Y559502D01*
X330859Y563298D01*
X332312Y566804D01*
X334996Y569488D01*
X338502Y570941D01*
X342298Y570941D01*
X345804Y569488D01*
X348488Y566804D01*
X349941Y563298D01*
X349941Y559502D01*
X348488Y555996D01*
X345804Y553312D01*
X342298Y551859D01*
X338502Y551859D01*
G37*
%LPD*%
%LPC*%
G36*
X313102Y551859D02*
X313102Y551859D01*
X309596Y553312D01*
X306912Y555996D01*
X305459Y559502D01*
X305459Y563298D01*
X306912Y566804D01*
X309596Y569488D01*
X313102Y570941D01*
X316898Y570941D01*
X320404Y569488D01*
X323088Y566804D01*
X324541Y563298D01*
X324541Y559502D01*
X323088Y555996D01*
X320404Y553312D01*
X316898Y551859D01*
X313102Y551859D01*
G37*
%LPD*%
%LPC*%
G36*
X287702Y551859D02*
X287702Y551859D01*
X284196Y553312D01*
X281512Y555996D01*
X280059Y559502D01*
X280059Y563298D01*
X281512Y566804D01*
X284196Y569488D01*
X287702Y570941D01*
X291498Y570941D01*
X295004Y569488D01*
X297688Y566804D01*
X299141Y563298D01*
X299141Y559502D01*
X297688Y555996D01*
X295004Y553312D01*
X291498Y551859D01*
X287702Y551859D01*
G37*
%LPD*%
%LPC*%
G36*
X236902Y551859D02*
X236902Y551859D01*
X233396Y553312D01*
X230712Y555996D01*
X229259Y559502D01*
X229259Y563298D01*
X230712Y566804D01*
X233396Y569488D01*
X236902Y570941D01*
X240698Y570941D01*
X244204Y569488D01*
X246888Y566804D01*
X248341Y563298D01*
X248341Y559502D01*
X246888Y555996D01*
X244204Y553312D01*
X240698Y551859D01*
X236902Y551859D01*
G37*
%LPD*%
%LPC*%
G36*
X211502Y551859D02*
X211502Y551859D01*
X207996Y553312D01*
X205312Y555996D01*
X203859Y559502D01*
X203859Y563298D01*
X205312Y566804D01*
X207996Y569488D01*
X211502Y570941D01*
X215298Y570941D01*
X218804Y569488D01*
X221488Y566804D01*
X222941Y563298D01*
X222941Y559502D01*
X221488Y555996D01*
X218804Y553312D01*
X215298Y551859D01*
X211502Y551859D01*
G37*
%LPD*%
%LPC*%
G36*
X186102Y551859D02*
X186102Y551859D01*
X182596Y553312D01*
X179912Y555996D01*
X178459Y559502D01*
X178459Y563298D01*
X179912Y566804D01*
X182596Y569488D01*
X186102Y570941D01*
X189898Y570941D01*
X193404Y569488D01*
X196088Y566804D01*
X197541Y563298D01*
X197541Y559502D01*
X196088Y555996D01*
X193404Y553312D01*
X189898Y551859D01*
X186102Y551859D01*
G37*
%LPD*%
%LPC*%
G36*
X739257Y178936D02*
X739257Y178936D01*
X736036Y180270D01*
X733570Y182736D01*
X732236Y185957D01*
X732236Y189443D01*
X733570Y192664D01*
X736036Y195130D01*
X739257Y196464D01*
X742743Y196464D01*
X745964Y195130D01*
X748430Y192664D01*
X749764Y189443D01*
X749764Y185957D01*
X748430Y182736D01*
X745964Y180270D01*
X742743Y178936D01*
X739257Y178936D01*
G37*
%LPD*%
%LPC*%
G36*
X713857Y178936D02*
X713857Y178936D01*
X710636Y180270D01*
X708170Y182736D01*
X706836Y185957D01*
X706836Y189443D01*
X708170Y192664D01*
X710636Y195130D01*
X713857Y196464D01*
X717343Y196464D01*
X720564Y195130D01*
X723030Y192664D01*
X724364Y189443D01*
X724364Y185957D01*
X723030Y182736D01*
X720564Y180270D01*
X717343Y178936D01*
X713857Y178936D01*
G37*
%LPD*%
%LPC*%
G36*
X688457Y178936D02*
X688457Y178936D01*
X685236Y180270D01*
X682770Y182736D01*
X681436Y185957D01*
X681436Y189443D01*
X682770Y192664D01*
X685236Y195130D01*
X688457Y196464D01*
X691943Y196464D01*
X695164Y195130D01*
X697630Y192664D01*
X698964Y189443D01*
X698964Y185957D01*
X697630Y182736D01*
X695164Y180270D01*
X691943Y178936D01*
X688457Y178936D01*
G37*
%LPD*%
%LPC*%
G36*
X663057Y178936D02*
X663057Y178936D01*
X659836Y180270D01*
X657370Y182736D01*
X656036Y185957D01*
X656036Y189443D01*
X657370Y192664D01*
X659836Y195130D01*
X663057Y196464D01*
X666543Y196464D01*
X669764Y195130D01*
X672230Y192664D01*
X673564Y189443D01*
X673564Y185957D01*
X672230Y182736D01*
X669764Y180270D01*
X666543Y178936D01*
X663057Y178936D01*
G37*
%LPD*%
%LPC*%
G36*
X637657Y178936D02*
X637657Y178936D01*
X634436Y180270D01*
X631970Y182736D01*
X630636Y185957D01*
X630636Y189443D01*
X631970Y192664D01*
X634436Y195130D01*
X637657Y196464D01*
X641143Y196464D01*
X644364Y195130D01*
X646830Y192664D01*
X648164Y189443D01*
X648164Y185957D01*
X646830Y182736D01*
X644364Y180270D01*
X641143Y178936D01*
X637657Y178936D01*
G37*
%LPD*%
%LPC*%
G36*
X612257Y178936D02*
X612257Y178936D01*
X609036Y180270D01*
X606570Y182736D01*
X605236Y185957D01*
X605236Y189443D01*
X606570Y192664D01*
X609036Y195130D01*
X612257Y196464D01*
X615743Y196464D01*
X618964Y195130D01*
X621430Y192664D01*
X622764Y189443D01*
X622764Y185957D01*
X621430Y182736D01*
X618964Y180270D01*
X615743Y178936D01*
X612257Y178936D01*
G37*
%LPD*%
%LPC*%
G36*
X586857Y178936D02*
X586857Y178936D01*
X583636Y180270D01*
X581170Y182736D01*
X579836Y185957D01*
X579836Y189443D01*
X581170Y192664D01*
X583636Y195130D01*
X586857Y196464D01*
X590343Y196464D01*
X593564Y195130D01*
X596030Y192664D01*
X597364Y189443D01*
X597364Y185957D01*
X596030Y182736D01*
X593564Y180270D01*
X590343Y178936D01*
X586857Y178936D01*
G37*
%LPD*%
%LPC*%
G36*
X536057Y178936D02*
X536057Y178936D01*
X532836Y180270D01*
X530370Y182736D01*
X529036Y185957D01*
X529036Y189443D01*
X530370Y192664D01*
X532836Y195130D01*
X536057Y196464D01*
X539543Y196464D01*
X542764Y195130D01*
X545230Y192664D01*
X546564Y189443D01*
X546564Y185957D01*
X545230Y182736D01*
X542764Y180270D01*
X539543Y178936D01*
X536057Y178936D01*
G37*
%LPD*%
%LPC*%
G36*
X459857Y178936D02*
X459857Y178936D01*
X456636Y180270D01*
X454170Y182736D01*
X452836Y185957D01*
X452836Y189443D01*
X454170Y192664D01*
X456636Y195130D01*
X459857Y196464D01*
X463343Y196464D01*
X466564Y195130D01*
X469030Y192664D01*
X470364Y189443D01*
X470364Y185957D01*
X469030Y182736D01*
X466564Y180270D01*
X463343Y178936D01*
X459857Y178936D01*
G37*
%LPD*%
%LPC*%
G36*
X485257Y458336D02*
X485257Y458336D01*
X482036Y459670D01*
X479570Y462136D01*
X478236Y465357D01*
X478236Y468843D01*
X479570Y472064D01*
X482036Y474530D01*
X485257Y475864D01*
X488743Y475864D01*
X491964Y474530D01*
X494430Y472064D01*
X495764Y468843D01*
X495764Y465357D01*
X494430Y462136D01*
X491964Y459670D01*
X488743Y458336D01*
X485257Y458336D01*
G37*
%LPD*%
%LPC*%
G36*
X459857Y458336D02*
X459857Y458336D01*
X456636Y459670D01*
X454170Y462136D01*
X452836Y465357D01*
X452836Y468843D01*
X454170Y472064D01*
X456636Y474530D01*
X459857Y475864D01*
X463343Y475864D01*
X466564Y474530D01*
X469030Y472064D01*
X470364Y468843D01*
X470364Y465357D01*
X469030Y462136D01*
X466564Y459670D01*
X463343Y458336D01*
X459857Y458336D01*
G37*
%LPD*%
%LPC*%
G36*
X891657Y458336D02*
X891657Y458336D01*
X888436Y459670D01*
X885970Y462136D01*
X884636Y465357D01*
X884636Y468843D01*
X885970Y472064D01*
X888436Y474530D01*
X891657Y475864D01*
X895143Y475864D01*
X898364Y474530D01*
X900830Y472064D01*
X902164Y468843D01*
X902164Y465357D01*
X900830Y462136D01*
X898364Y459670D01*
X895143Y458336D01*
X891657Y458336D01*
G37*
%LPD*%
%LPC*%
G36*
X866257Y458336D02*
X866257Y458336D01*
X863036Y459670D01*
X860570Y462136D01*
X859236Y465357D01*
X859236Y468843D01*
X860570Y472064D01*
X863036Y474530D01*
X866257Y475864D01*
X869743Y475864D01*
X872964Y474530D01*
X875430Y472064D01*
X876764Y468843D01*
X876764Y465357D01*
X875430Y462136D01*
X872964Y459670D01*
X869743Y458336D01*
X866257Y458336D01*
G37*
%LPD*%
%LPC*%
G36*
X840857Y458336D02*
X840857Y458336D01*
X837636Y459670D01*
X835170Y462136D01*
X833836Y465357D01*
X833836Y468843D01*
X835170Y472064D01*
X837636Y474530D01*
X840857Y475864D01*
X844343Y475864D01*
X847564Y474530D01*
X850030Y472064D01*
X851364Y468843D01*
X851364Y465357D01*
X850030Y462136D01*
X847564Y459670D01*
X844343Y458336D01*
X840857Y458336D01*
G37*
%LPD*%
%LPC*%
G36*
X815457Y458336D02*
X815457Y458336D01*
X812236Y459670D01*
X809770Y462136D01*
X808436Y465357D01*
X808436Y468843D01*
X809770Y472064D01*
X812236Y474530D01*
X815457Y475864D01*
X818943Y475864D01*
X822164Y474530D01*
X824630Y472064D01*
X825964Y468843D01*
X825964Y465357D01*
X824630Y462136D01*
X822164Y459670D01*
X818943Y458336D01*
X815457Y458336D01*
G37*
%LPD*%
%LPC*%
G36*
X790057Y458336D02*
X790057Y458336D01*
X786836Y459670D01*
X784370Y462136D01*
X783036Y465357D01*
X783036Y468843D01*
X784370Y472064D01*
X786836Y474530D01*
X790057Y475864D01*
X793543Y475864D01*
X796764Y474530D01*
X799230Y472064D01*
X800564Y468843D01*
X800564Y465357D01*
X799230Y462136D01*
X796764Y459670D01*
X793543Y458336D01*
X790057Y458336D01*
G37*
%LPD*%
%LPC*%
G36*
X764657Y458336D02*
X764657Y458336D01*
X761436Y459670D01*
X758970Y462136D01*
X757636Y465357D01*
X757636Y468843D01*
X758970Y472064D01*
X761436Y474530D01*
X764657Y475864D01*
X768143Y475864D01*
X771364Y474530D01*
X773830Y472064D01*
X775164Y468843D01*
X775164Y465357D01*
X773830Y462136D01*
X771364Y459670D01*
X768143Y458336D01*
X764657Y458336D01*
G37*
%LPD*%
%LPC*%
G36*
X739257Y458336D02*
X739257Y458336D01*
X736036Y459670D01*
X733570Y462136D01*
X732236Y465357D01*
X732236Y468843D01*
X733570Y472064D01*
X736036Y474530D01*
X739257Y475864D01*
X742743Y475864D01*
X745964Y474530D01*
X748430Y472064D01*
X749764Y468843D01*
X749764Y465357D01*
X748430Y462136D01*
X745964Y459670D01*
X742743Y458336D01*
X739257Y458336D01*
G37*
%LPD*%
%LPC*%
G36*
X713857Y458336D02*
X713857Y458336D01*
X710636Y459670D01*
X708170Y462136D01*
X706836Y465357D01*
X706836Y468843D01*
X708170Y472064D01*
X710636Y474530D01*
X713857Y475864D01*
X717343Y475864D01*
X720564Y474530D01*
X723030Y472064D01*
X724364Y468843D01*
X724364Y465357D01*
X723030Y462136D01*
X720564Y459670D01*
X717343Y458336D01*
X713857Y458336D01*
G37*
%LPD*%
%LPC*%
G36*
X688457Y458336D02*
X688457Y458336D01*
X685236Y459670D01*
X682770Y462136D01*
X681436Y465357D01*
X681436Y468843D01*
X682770Y472064D01*
X685236Y474530D01*
X688457Y475864D01*
X691943Y475864D01*
X695164Y474530D01*
X697630Y472064D01*
X698964Y468843D01*
X698964Y465357D01*
X697630Y462136D01*
X695164Y459670D01*
X691943Y458336D01*
X688457Y458336D01*
G37*
%LPD*%
%LPC*%
G36*
X663057Y458336D02*
X663057Y458336D01*
X659836Y459670D01*
X657370Y462136D01*
X656036Y465357D01*
X656036Y468843D01*
X657370Y472064D01*
X659836Y474530D01*
X663057Y475864D01*
X666543Y475864D01*
X669764Y474530D01*
X672230Y472064D01*
X673564Y468843D01*
X673564Y465357D01*
X672230Y462136D01*
X669764Y459670D01*
X666543Y458336D01*
X663057Y458336D01*
G37*
%LPD*%
%LPC*%
G36*
X637657Y458336D02*
X637657Y458336D01*
X634436Y459670D01*
X631970Y462136D01*
X630636Y465357D01*
X630636Y468843D01*
X631970Y472064D01*
X634436Y474530D01*
X637657Y475864D01*
X641143Y475864D01*
X644364Y474530D01*
X646830Y472064D01*
X648164Y468843D01*
X648164Y465357D01*
X646830Y462136D01*
X644364Y459670D01*
X641143Y458336D01*
X637657Y458336D01*
G37*
%LPD*%
%LPC*%
G36*
X612257Y458336D02*
X612257Y458336D01*
X609036Y459670D01*
X606570Y462136D01*
X605236Y465357D01*
X605236Y468843D01*
X606570Y472064D01*
X609036Y474530D01*
X612257Y475864D01*
X615743Y475864D01*
X618964Y474530D01*
X621430Y472064D01*
X622764Y468843D01*
X622764Y465357D01*
X621430Y462136D01*
X618964Y459670D01*
X615743Y458336D01*
X612257Y458336D01*
G37*
%LPD*%
%LPC*%
G36*
X586857Y458336D02*
X586857Y458336D01*
X583636Y459670D01*
X581170Y462136D01*
X579836Y465357D01*
X579836Y468843D01*
X581170Y472064D01*
X583636Y474530D01*
X586857Y475864D01*
X590343Y475864D01*
X593564Y474530D01*
X596030Y472064D01*
X597364Y468843D01*
X597364Y465357D01*
X596030Y462136D01*
X593564Y459670D01*
X590343Y458336D01*
X586857Y458336D01*
G37*
%LPD*%
%LPC*%
G36*
X561457Y458336D02*
X561457Y458336D01*
X558236Y459670D01*
X555770Y462136D01*
X554436Y465357D01*
X554436Y468843D01*
X555770Y472064D01*
X558236Y474530D01*
X561457Y475864D01*
X564943Y475864D01*
X568164Y474530D01*
X570630Y472064D01*
X571964Y468843D01*
X571964Y465357D01*
X570630Y462136D01*
X568164Y459670D01*
X564943Y458336D01*
X561457Y458336D01*
G37*
%LPD*%
%LPC*%
G36*
X536057Y458336D02*
X536057Y458336D01*
X532836Y459670D01*
X530370Y462136D01*
X529036Y465357D01*
X529036Y468843D01*
X530370Y472064D01*
X532836Y474530D01*
X536057Y475864D01*
X539543Y475864D01*
X542764Y474530D01*
X545230Y472064D01*
X546564Y468843D01*
X546564Y465357D01*
X545230Y462136D01*
X542764Y459670D01*
X539543Y458336D01*
X536057Y458336D01*
G37*
%LPD*%
%LPC*%
G36*
X510657Y458336D02*
X510657Y458336D01*
X507436Y459670D01*
X504970Y462136D01*
X503636Y465357D01*
X503636Y468843D01*
X504970Y472064D01*
X507436Y474530D01*
X510657Y475864D01*
X514143Y475864D01*
X517364Y474530D01*
X519830Y472064D01*
X521164Y468843D01*
X521164Y465357D01*
X519830Y462136D01*
X517364Y459670D01*
X514143Y458336D01*
X510657Y458336D01*
G37*
%LPD*%
%LPC*%
G36*
X891657Y432936D02*
X891657Y432936D01*
X888436Y434270D01*
X885970Y436736D01*
X884636Y439957D01*
X884636Y443443D01*
X885970Y446664D01*
X888436Y449130D01*
X891657Y450464D01*
X895143Y450464D01*
X898364Y449130D01*
X900830Y446664D01*
X902164Y443443D01*
X902164Y439957D01*
X900830Y436736D01*
X898364Y434270D01*
X895143Y432936D01*
X891657Y432936D01*
G37*
%LPD*%
%LPC*%
G36*
X866257Y432936D02*
X866257Y432936D01*
X863036Y434270D01*
X860570Y436736D01*
X859236Y439957D01*
X859236Y443443D01*
X860570Y446664D01*
X863036Y449130D01*
X866257Y450464D01*
X869743Y450464D01*
X872964Y449130D01*
X875430Y446664D01*
X876764Y443443D01*
X876764Y439957D01*
X875430Y436736D01*
X872964Y434270D01*
X869743Y432936D01*
X866257Y432936D01*
G37*
%LPD*%
%LPC*%
G36*
X840857Y432936D02*
X840857Y432936D01*
X837636Y434270D01*
X835170Y436736D01*
X833836Y439957D01*
X833836Y443443D01*
X835170Y446664D01*
X837636Y449130D01*
X840857Y450464D01*
X844343Y450464D01*
X847564Y449130D01*
X850030Y446664D01*
X851364Y443443D01*
X851364Y439957D01*
X850030Y436736D01*
X847564Y434270D01*
X844343Y432936D01*
X840857Y432936D01*
G37*
%LPD*%
%LPC*%
G36*
X815457Y432936D02*
X815457Y432936D01*
X812236Y434270D01*
X809770Y436736D01*
X808436Y439957D01*
X808436Y443443D01*
X809770Y446664D01*
X812236Y449130D01*
X815457Y450464D01*
X818943Y450464D01*
X822164Y449130D01*
X824630Y446664D01*
X825964Y443443D01*
X825964Y439957D01*
X824630Y436736D01*
X822164Y434270D01*
X818943Y432936D01*
X815457Y432936D01*
G37*
%LPD*%
%LPC*%
G36*
X790057Y432936D02*
X790057Y432936D01*
X786836Y434270D01*
X784370Y436736D01*
X783036Y439957D01*
X783036Y443443D01*
X784370Y446664D01*
X786836Y449130D01*
X790057Y450464D01*
X793543Y450464D01*
X796764Y449130D01*
X799230Y446664D01*
X800564Y443443D01*
X800564Y439957D01*
X799230Y436736D01*
X796764Y434270D01*
X793543Y432936D01*
X790057Y432936D01*
G37*
%LPD*%
%LPC*%
G36*
X764657Y432936D02*
X764657Y432936D01*
X761436Y434270D01*
X758970Y436736D01*
X757636Y439957D01*
X757636Y443443D01*
X758970Y446664D01*
X761436Y449130D01*
X764657Y450464D01*
X768143Y450464D01*
X771364Y449130D01*
X773830Y446664D01*
X775164Y443443D01*
X775164Y439957D01*
X773830Y436736D01*
X771364Y434270D01*
X768143Y432936D01*
X764657Y432936D01*
G37*
%LPD*%
%LPC*%
G36*
X739257Y432936D02*
X739257Y432936D01*
X736036Y434270D01*
X733570Y436736D01*
X732236Y439957D01*
X732236Y443443D01*
X733570Y446664D01*
X736036Y449130D01*
X739257Y450464D01*
X742743Y450464D01*
X745964Y449130D01*
X748430Y446664D01*
X749764Y443443D01*
X749764Y439957D01*
X748430Y436736D01*
X745964Y434270D01*
X742743Y432936D01*
X739257Y432936D01*
G37*
%LPD*%
%LPC*%
G36*
X713857Y432936D02*
X713857Y432936D01*
X710636Y434270D01*
X708170Y436736D01*
X706836Y439957D01*
X706836Y443443D01*
X708170Y446664D01*
X710636Y449130D01*
X713857Y450464D01*
X717343Y450464D01*
X720564Y449130D01*
X723030Y446664D01*
X724364Y443443D01*
X724364Y439957D01*
X723030Y436736D01*
X720564Y434270D01*
X717343Y432936D01*
X713857Y432936D01*
G37*
%LPD*%
%LPC*%
G36*
X688457Y432936D02*
X688457Y432936D01*
X685236Y434270D01*
X682770Y436736D01*
X681436Y439957D01*
X681436Y443443D01*
X682770Y446664D01*
X685236Y449130D01*
X688457Y450464D01*
X691943Y450464D01*
X695164Y449130D01*
X697630Y446664D01*
X698964Y443443D01*
X698964Y439957D01*
X697630Y436736D01*
X695164Y434270D01*
X691943Y432936D01*
X688457Y432936D01*
G37*
%LPD*%
%LPC*%
G36*
X663057Y432936D02*
X663057Y432936D01*
X659836Y434270D01*
X657370Y436736D01*
X656036Y439957D01*
X656036Y443443D01*
X657370Y446664D01*
X659836Y449130D01*
X663057Y450464D01*
X666543Y450464D01*
X669764Y449130D01*
X672230Y446664D01*
X673564Y443443D01*
X673564Y439957D01*
X672230Y436736D01*
X669764Y434270D01*
X666543Y432936D01*
X663057Y432936D01*
G37*
%LPD*%
%LPC*%
G36*
X612257Y432936D02*
X612257Y432936D01*
X609036Y434270D01*
X606570Y436736D01*
X605236Y439957D01*
X605236Y443443D01*
X606570Y446664D01*
X609036Y449130D01*
X612257Y450464D01*
X615743Y450464D01*
X618964Y449130D01*
X621430Y446664D01*
X622764Y443443D01*
X622764Y439957D01*
X621430Y436736D01*
X618964Y434270D01*
X615743Y432936D01*
X612257Y432936D01*
G37*
%LPD*%
%LPC*%
G36*
X586857Y432936D02*
X586857Y432936D01*
X583636Y434270D01*
X581170Y436736D01*
X579836Y439957D01*
X579836Y443443D01*
X581170Y446664D01*
X583636Y449130D01*
X586857Y450464D01*
X590343Y450464D01*
X593564Y449130D01*
X596030Y446664D01*
X597364Y443443D01*
X597364Y439957D01*
X596030Y436736D01*
X593564Y434270D01*
X590343Y432936D01*
X586857Y432936D01*
G37*
%LPD*%
%LPC*%
G36*
X561457Y432936D02*
X561457Y432936D01*
X558236Y434270D01*
X555770Y436736D01*
X554436Y439957D01*
X554436Y443443D01*
X555770Y446664D01*
X558236Y449130D01*
X561457Y450464D01*
X564943Y450464D01*
X568164Y449130D01*
X570630Y446664D01*
X571964Y443443D01*
X571964Y439957D01*
X570630Y436736D01*
X568164Y434270D01*
X564943Y432936D01*
X561457Y432936D01*
G37*
%LPD*%
%LPC*%
G36*
X536057Y432936D02*
X536057Y432936D01*
X532836Y434270D01*
X530370Y436736D01*
X529036Y439957D01*
X529036Y443443D01*
X530370Y446664D01*
X532836Y449130D01*
X536057Y450464D01*
X539543Y450464D01*
X542764Y449130D01*
X545230Y446664D01*
X546564Y443443D01*
X546564Y439957D01*
X545230Y436736D01*
X542764Y434270D01*
X539543Y432936D01*
X536057Y432936D01*
G37*
%LPD*%
%LPC*%
G36*
X510657Y432936D02*
X510657Y432936D01*
X507436Y434270D01*
X504970Y436736D01*
X503636Y439957D01*
X503636Y443443D01*
X504970Y446664D01*
X507436Y449130D01*
X510657Y450464D01*
X514143Y450464D01*
X517364Y449130D01*
X519830Y446664D01*
X521164Y443443D01*
X521164Y439957D01*
X519830Y436736D01*
X517364Y434270D01*
X514143Y432936D01*
X510657Y432936D01*
G37*
%LPD*%
%LPC*%
G36*
X485257Y432936D02*
X485257Y432936D01*
X482036Y434270D01*
X479570Y436736D01*
X478236Y439957D01*
X478236Y443443D01*
X479570Y446664D01*
X482036Y449130D01*
X485257Y450464D01*
X488743Y450464D01*
X491964Y449130D01*
X494430Y446664D01*
X495764Y443443D01*
X495764Y439957D01*
X494430Y436736D01*
X491964Y434270D01*
X488743Y432936D01*
X485257Y432936D01*
G37*
%LPD*%
%LPC*%
G36*
X459857Y432936D02*
X459857Y432936D01*
X456636Y434270D01*
X454170Y436736D01*
X452836Y439957D01*
X452836Y443443D01*
X454170Y446664D01*
X456636Y449130D01*
X459857Y450464D01*
X463343Y450464D01*
X466564Y449130D01*
X469030Y446664D01*
X470364Y443443D01*
X470364Y439957D01*
X469030Y436736D01*
X466564Y434270D01*
X463343Y432936D01*
X459857Y432936D01*
G37*
%LPD*%
%LPC*%
G36*
X815457Y204336D02*
X815457Y204336D01*
X812236Y205670D01*
X809770Y208136D01*
X808436Y211357D01*
X808436Y214843D01*
X809770Y218064D01*
X812236Y220530D01*
X815457Y221864D01*
X818943Y221864D01*
X822164Y220530D01*
X824630Y218064D01*
X825964Y214843D01*
X825964Y211357D01*
X824630Y208136D01*
X822164Y205670D01*
X818943Y204336D01*
X815457Y204336D01*
G37*
%LPD*%
%LPC*%
G36*
X201457Y410336D02*
X201457Y410336D01*
X198236Y411670D01*
X195770Y414136D01*
X194436Y417357D01*
X194436Y420843D01*
X195770Y424064D01*
X198236Y426530D01*
X201457Y427864D01*
X204943Y427864D01*
X208164Y426530D01*
X210630Y424064D01*
X211964Y420843D01*
X211964Y417357D01*
X210630Y414136D01*
X208164Y411670D01*
X204943Y410336D01*
X201457Y410336D01*
G37*
%LPD*%
%LPC*%
G36*
X201457Y359536D02*
X201457Y359536D01*
X198236Y360870D01*
X195770Y363336D01*
X194436Y366557D01*
X194436Y370043D01*
X195770Y373264D01*
X198236Y375730D01*
X201457Y377064D01*
X204943Y377064D01*
X208164Y375730D01*
X210630Y373264D01*
X211964Y370043D01*
X211964Y366557D01*
X210630Y363336D01*
X208164Y360870D01*
X204943Y359536D01*
X201457Y359536D01*
G37*
%LPD*%
%LPC*%
G36*
X201457Y334136D02*
X201457Y334136D01*
X198236Y335470D01*
X195770Y337936D01*
X194436Y341157D01*
X194436Y344643D01*
X195770Y347864D01*
X198236Y350330D01*
X201457Y351664D01*
X204943Y351664D01*
X208164Y350330D01*
X210630Y347864D01*
X211964Y344643D01*
X211964Y341157D01*
X210630Y337936D01*
X208164Y335470D01*
X204943Y334136D01*
X201457Y334136D01*
G37*
%LPD*%
%LPC*%
G36*
X201457Y308736D02*
X201457Y308736D01*
X198236Y310070D01*
X195770Y312536D01*
X194436Y315757D01*
X194436Y319243D01*
X195770Y322464D01*
X198236Y324930D01*
X201457Y326264D01*
X204943Y326264D01*
X208164Y324930D01*
X210630Y322464D01*
X211964Y319243D01*
X211964Y315757D01*
X210630Y312536D01*
X208164Y310070D01*
X204943Y308736D01*
X201457Y308736D01*
G37*
%LPD*%
%LPC*%
G36*
X201457Y283336D02*
X201457Y283336D01*
X198236Y284670D01*
X195770Y287136D01*
X194436Y290357D01*
X194436Y293843D01*
X195770Y297064D01*
X198236Y299530D01*
X201457Y300864D01*
X204943Y300864D01*
X208164Y299530D01*
X210630Y297064D01*
X211964Y293843D01*
X211964Y290357D01*
X210630Y287136D01*
X208164Y284670D01*
X204943Y283336D01*
X201457Y283336D01*
G37*
%LPD*%
%LPC*%
G36*
X201457Y257936D02*
X201457Y257936D01*
X198236Y259270D01*
X195770Y261736D01*
X194436Y264957D01*
X194436Y268443D01*
X195770Y271664D01*
X198236Y274130D01*
X201457Y275464D01*
X204943Y275464D01*
X208164Y274130D01*
X210630Y271664D01*
X211964Y268443D01*
X211964Y264957D01*
X210630Y261736D01*
X208164Y259270D01*
X204943Y257936D01*
X201457Y257936D01*
G37*
%LPD*%
%LPC*%
G36*
X201457Y232536D02*
X201457Y232536D01*
X198236Y233870D01*
X195770Y236336D01*
X194436Y239557D01*
X194436Y243043D01*
X195770Y246264D01*
X198236Y248730D01*
X201457Y250064D01*
X204943Y250064D01*
X208164Y248730D01*
X210630Y246264D01*
X211964Y243043D01*
X211964Y239557D01*
X210630Y236336D01*
X208164Y233870D01*
X204943Y232536D01*
X201457Y232536D01*
G37*
%LPD*%
%LPC*%
G36*
X866257Y204336D02*
X866257Y204336D01*
X863036Y205670D01*
X860570Y208136D01*
X859236Y211357D01*
X859236Y214843D01*
X860570Y218064D01*
X863036Y220530D01*
X866257Y221864D01*
X869743Y221864D01*
X872964Y220530D01*
X875430Y218064D01*
X876764Y214843D01*
X876764Y211357D01*
X875430Y208136D01*
X872964Y205670D01*
X869743Y204336D01*
X866257Y204336D01*
G37*
%LPD*%
%LPC*%
G36*
X840857Y204336D02*
X840857Y204336D01*
X837636Y205670D01*
X835170Y208136D01*
X833836Y211357D01*
X833836Y214843D01*
X835170Y218064D01*
X837636Y220530D01*
X840857Y221864D01*
X844343Y221864D01*
X847564Y220530D01*
X850030Y218064D01*
X851364Y214843D01*
X851364Y211357D01*
X850030Y208136D01*
X847564Y205670D01*
X844343Y204336D01*
X840857Y204336D01*
G37*
%LPD*%
%LPC*%
G36*
X891657Y204336D02*
X891657Y204336D01*
X888436Y205670D01*
X885970Y208136D01*
X884636Y211357D01*
X884636Y214843D01*
X885970Y218064D01*
X888436Y220530D01*
X891657Y221864D01*
X895143Y221864D01*
X898364Y220530D01*
X900830Y218064D01*
X902164Y214843D01*
X902164Y211357D01*
X900830Y208136D01*
X898364Y205670D01*
X895143Y204336D01*
X891657Y204336D01*
G37*
%LPD*%
%LPC*%
G36*
X790057Y204336D02*
X790057Y204336D01*
X786836Y205670D01*
X784370Y208136D01*
X783036Y211357D01*
X783036Y214843D01*
X784370Y218064D01*
X786836Y220530D01*
X790057Y221864D01*
X793543Y221864D01*
X796764Y220530D01*
X799230Y218064D01*
X800564Y214843D01*
X800564Y211357D01*
X799230Y208136D01*
X796764Y205670D01*
X793543Y204336D01*
X790057Y204336D01*
G37*
%LPD*%
%LPC*%
G36*
X764657Y204336D02*
X764657Y204336D01*
X761436Y205670D01*
X758970Y208136D01*
X757636Y211357D01*
X757636Y214843D01*
X758970Y218064D01*
X761436Y220530D01*
X764657Y221864D01*
X768143Y221864D01*
X771364Y220530D01*
X773830Y218064D01*
X775164Y214843D01*
X775164Y211357D01*
X773830Y208136D01*
X771364Y205670D01*
X768143Y204336D01*
X764657Y204336D01*
G37*
%LPD*%
%LPC*%
G36*
X739257Y204336D02*
X739257Y204336D01*
X736036Y205670D01*
X733570Y208136D01*
X732236Y211357D01*
X732236Y214843D01*
X733570Y218064D01*
X736036Y220530D01*
X739257Y221864D01*
X742743Y221864D01*
X745964Y220530D01*
X748430Y218064D01*
X749764Y214843D01*
X749764Y211357D01*
X748430Y208136D01*
X745964Y205670D01*
X742743Y204336D01*
X739257Y204336D01*
G37*
%LPD*%
%LPC*%
G36*
X688457Y204336D02*
X688457Y204336D01*
X685236Y205670D01*
X682770Y208136D01*
X681436Y211357D01*
X681436Y214843D01*
X682770Y218064D01*
X685236Y220530D01*
X688457Y221864D01*
X691943Y221864D01*
X695164Y220530D01*
X697630Y218064D01*
X698964Y214843D01*
X698964Y211357D01*
X697630Y208136D01*
X695164Y205670D01*
X691943Y204336D01*
X688457Y204336D01*
G37*
%LPD*%
%LPC*%
G36*
X663057Y204336D02*
X663057Y204336D01*
X659836Y205670D01*
X657370Y208136D01*
X656036Y211357D01*
X656036Y214843D01*
X657370Y218064D01*
X659836Y220530D01*
X663057Y221864D01*
X666543Y221864D01*
X669764Y220530D01*
X672230Y218064D01*
X673564Y214843D01*
X673564Y211357D01*
X672230Y208136D01*
X669764Y205670D01*
X666543Y204336D01*
X663057Y204336D01*
G37*
%LPD*%
%LPC*%
G36*
X637657Y204336D02*
X637657Y204336D01*
X634436Y205670D01*
X631970Y208136D01*
X630636Y211357D01*
X630636Y214843D01*
X631970Y218064D01*
X634436Y220530D01*
X637657Y221864D01*
X641143Y221864D01*
X644364Y220530D01*
X646830Y218064D01*
X648164Y214843D01*
X648164Y211357D01*
X646830Y208136D01*
X644364Y205670D01*
X641143Y204336D01*
X637657Y204336D01*
G37*
%LPD*%
%LPC*%
G36*
X612257Y204336D02*
X612257Y204336D01*
X609036Y205670D01*
X606570Y208136D01*
X605236Y211357D01*
X605236Y214843D01*
X606570Y218064D01*
X609036Y220530D01*
X612257Y221864D01*
X615743Y221864D01*
X618964Y220530D01*
X621430Y218064D01*
X622764Y214843D01*
X622764Y211357D01*
X621430Y208136D01*
X618964Y205670D01*
X615743Y204336D01*
X612257Y204336D01*
G37*
%LPD*%
%LPC*%
G36*
X586857Y204336D02*
X586857Y204336D01*
X583636Y205670D01*
X581170Y208136D01*
X579836Y211357D01*
X579836Y214843D01*
X581170Y218064D01*
X583636Y220530D01*
X586857Y221864D01*
X590343Y221864D01*
X593564Y220530D01*
X596030Y218064D01*
X597364Y214843D01*
X597364Y211357D01*
X596030Y208136D01*
X593564Y205670D01*
X590343Y204336D01*
X586857Y204336D01*
G37*
%LPD*%
%LPC*%
G36*
X561457Y204336D02*
X561457Y204336D01*
X558236Y205670D01*
X555770Y208136D01*
X554436Y211357D01*
X554436Y214843D01*
X555770Y218064D01*
X558236Y220530D01*
X561457Y221864D01*
X564943Y221864D01*
X568164Y220530D01*
X570630Y218064D01*
X571964Y214843D01*
X571964Y211357D01*
X570630Y208136D01*
X568164Y205670D01*
X564943Y204336D01*
X561457Y204336D01*
G37*
%LPD*%
%LPC*%
G36*
X536057Y204336D02*
X536057Y204336D01*
X532836Y205670D01*
X530370Y208136D01*
X529036Y211357D01*
X529036Y214843D01*
X530370Y218064D01*
X532836Y220530D01*
X536057Y221864D01*
X539543Y221864D01*
X542764Y220530D01*
X545230Y218064D01*
X546564Y214843D01*
X546564Y211357D01*
X545230Y208136D01*
X542764Y205670D01*
X539543Y204336D01*
X536057Y204336D01*
G37*
%LPD*%
%LPC*%
G36*
X510657Y204336D02*
X510657Y204336D01*
X507436Y205670D01*
X504970Y208136D01*
X503636Y211357D01*
X503636Y214843D01*
X504970Y218064D01*
X507436Y220530D01*
X510657Y221864D01*
X514143Y221864D01*
X517364Y220530D01*
X519830Y218064D01*
X521164Y214843D01*
X521164Y211357D01*
X519830Y208136D01*
X517364Y205670D01*
X514143Y204336D01*
X510657Y204336D01*
G37*
%LPD*%
%LPC*%
G36*
X485257Y204336D02*
X485257Y204336D01*
X482036Y205670D01*
X479570Y208136D01*
X478236Y211357D01*
X478236Y214843D01*
X479570Y218064D01*
X482036Y220530D01*
X485257Y221864D01*
X488743Y221864D01*
X491964Y220530D01*
X494430Y218064D01*
X495764Y214843D01*
X495764Y211357D01*
X494430Y208136D01*
X491964Y205670D01*
X488743Y204336D01*
X485257Y204336D01*
G37*
%LPD*%
%LPC*%
G36*
X459857Y204336D02*
X459857Y204336D01*
X456636Y205670D01*
X454170Y208136D01*
X452836Y211357D01*
X452836Y214843D01*
X454170Y218064D01*
X456636Y220530D01*
X459857Y221864D01*
X463343Y221864D01*
X466564Y220530D01*
X469030Y218064D01*
X470364Y214843D01*
X470364Y211357D01*
X469030Y208136D01*
X466564Y205670D01*
X463343Y204336D01*
X459857Y204336D01*
G37*
%LPD*%
%LPC*%
G36*
X561457Y178936D02*
X561457Y178936D01*
X558236Y180270D01*
X555770Y182736D01*
X554436Y185957D01*
X554436Y189443D01*
X555770Y192664D01*
X558236Y195130D01*
X561457Y196464D01*
X564943Y196464D01*
X568164Y195130D01*
X570630Y192664D01*
X571964Y189443D01*
X571964Y185957D01*
X570630Y182736D01*
X568164Y180270D01*
X564943Y178936D01*
X561457Y178936D01*
G37*
%LPD*%
%LPC*%
G36*
X510657Y178936D02*
X510657Y178936D01*
X507436Y180270D01*
X504970Y182736D01*
X503636Y185957D01*
X503636Y189443D01*
X504970Y192664D01*
X507436Y195130D01*
X510657Y196464D01*
X514143Y196464D01*
X517364Y195130D01*
X519830Y192664D01*
X521164Y189443D01*
X521164Y185957D01*
X519830Y182736D01*
X517364Y180270D01*
X514143Y178936D01*
X510657Y178936D01*
G37*
%LPD*%
%LPC*%
G36*
X485257Y178936D02*
X485257Y178936D01*
X482036Y180270D01*
X479570Y182736D01*
X478236Y185957D01*
X478236Y189443D01*
X479570Y192664D01*
X482036Y195130D01*
X485257Y196464D01*
X488743Y196464D01*
X491964Y195130D01*
X494430Y192664D01*
X495764Y189443D01*
X495764Y185957D01*
X494430Y182736D01*
X491964Y180270D01*
X488743Y178936D01*
X485257Y178936D01*
G37*
%LPD*%
%LPC*%
G36*
X891657Y178936D02*
X891657Y178936D01*
X888436Y180270D01*
X885970Y182736D01*
X884636Y185957D01*
X884636Y189443D01*
X885970Y192664D01*
X888436Y195130D01*
X891657Y196464D01*
X895143Y196464D01*
X898364Y195130D01*
X900830Y192664D01*
X902164Y189443D01*
X902164Y185957D01*
X900830Y182736D01*
X898364Y180270D01*
X895143Y178936D01*
X891657Y178936D01*
G37*
%LPD*%
%LPC*%
G36*
X866257Y178936D02*
X866257Y178936D01*
X863036Y180270D01*
X860570Y182736D01*
X859236Y185957D01*
X859236Y189443D01*
X860570Y192664D01*
X863036Y195130D01*
X866257Y196464D01*
X869743Y196464D01*
X872964Y195130D01*
X875430Y192664D01*
X876764Y189443D01*
X876764Y185957D01*
X875430Y182736D01*
X872964Y180270D01*
X869743Y178936D01*
X866257Y178936D01*
G37*
%LPD*%
%LPC*%
G36*
X840857Y178936D02*
X840857Y178936D01*
X837636Y180270D01*
X835170Y182736D01*
X833836Y185957D01*
X833836Y189443D01*
X835170Y192664D01*
X837636Y195130D01*
X840857Y196464D01*
X844343Y196464D01*
X847564Y195130D01*
X850030Y192664D01*
X851364Y189443D01*
X851364Y185957D01*
X850030Y182736D01*
X847564Y180270D01*
X844343Y178936D01*
X840857Y178936D01*
G37*
%LPD*%
%LPC*%
G36*
X815457Y178936D02*
X815457Y178936D01*
X812236Y180270D01*
X809770Y182736D01*
X808436Y185957D01*
X808436Y189443D01*
X809770Y192664D01*
X812236Y195130D01*
X815457Y196464D01*
X818943Y196464D01*
X822164Y195130D01*
X824630Y192664D01*
X825964Y189443D01*
X825964Y185957D01*
X824630Y182736D01*
X822164Y180270D01*
X818943Y178936D01*
X815457Y178936D01*
G37*
%LPD*%
%LPC*%
G36*
X790057Y178936D02*
X790057Y178936D01*
X786836Y180270D01*
X784370Y182736D01*
X783036Y185957D01*
X783036Y189443D01*
X784370Y192664D01*
X786836Y195130D01*
X790057Y196464D01*
X793543Y196464D01*
X796764Y195130D01*
X799230Y192664D01*
X800564Y189443D01*
X800564Y185957D01*
X799230Y182736D01*
X796764Y180270D01*
X793543Y178936D01*
X790057Y178936D01*
G37*
%LPD*%
%LPC*%
G36*
X764657Y178936D02*
X764657Y178936D01*
X761436Y180270D01*
X758970Y182736D01*
X757636Y185957D01*
X757636Y189443D01*
X758970Y192664D01*
X761436Y195130D01*
X764657Y196464D01*
X768143Y196464D01*
X771364Y195130D01*
X773830Y192664D01*
X775164Y189443D01*
X775164Y185957D01*
X773830Y182736D01*
X771364Y180270D01*
X768143Y178936D01*
X764657Y178936D01*
G37*
%LPD*%
%LPC*%
G36*
X442863Y106070D02*
X442863Y106070D01*
X439838Y107323D01*
X437523Y109638D01*
X436270Y112663D01*
X436270Y115937D01*
X437523Y118962D01*
X439838Y121277D01*
X442863Y122530D01*
X446137Y122530D01*
X449162Y121277D01*
X451477Y118962D01*
X452730Y115937D01*
X452730Y112663D01*
X451477Y109638D01*
X449162Y107323D01*
X446137Y106070D01*
X442863Y106070D01*
G37*
%LPD*%
%LPC*%
G36*
X735488Y45211D02*
X735488Y45211D01*
X733434Y46062D01*
X731862Y47634D01*
X731011Y49688D01*
X731011Y51912D01*
X731862Y53966D01*
X733434Y55538D01*
X735488Y56389D01*
X737712Y56389D01*
X739766Y55538D01*
X741338Y53966D01*
X742189Y51912D01*
X742189Y49688D01*
X741338Y47634D01*
X739766Y46062D01*
X737712Y45211D01*
X735488Y45211D01*
G37*
%LPD*%
%LPC*%
G36*
X143039Y154939D02*
X143039Y154939D01*
X143039Y163075D01*
X143062Y163071D01*
X144700Y162539D01*
X146234Y161757D01*
X146671Y161440D01*
X147627Y160745D01*
X148845Y159527D01*
X149857Y158134D01*
X150639Y156600D01*
X151171Y154962D01*
X151175Y154939D01*
X143039Y154939D01*
G37*
%LPD*%
%LPC*%
G36*
X143039Y149861D02*
X143039Y149861D01*
X151175Y149861D01*
X151171Y149838D01*
X150639Y148200D01*
X149857Y146666D01*
X148845Y145273D01*
X147627Y144055D01*
X146234Y143043D01*
X144700Y142261D01*
X143062Y141729D01*
X143039Y141725D01*
X143039Y149861D01*
G37*
%LPD*%
%LPC*%
G36*
X129825Y154939D02*
X129825Y154939D01*
X129829Y154962D01*
X130361Y156600D01*
X131143Y158134D01*
X132155Y159527D01*
X133373Y160745D01*
X134766Y161757D01*
X136300Y162539D01*
X137938Y163071D01*
X137961Y163075D01*
X137961Y154939D01*
X129825Y154939D01*
G37*
%LPD*%
%LPC*%
G36*
X137938Y141729D02*
X137938Y141729D01*
X136300Y142261D01*
X134766Y143043D01*
X133373Y144055D01*
X132155Y145273D01*
X131143Y146666D01*
X130361Y148200D01*
X129829Y149838D01*
X129825Y149861D01*
X137961Y149861D01*
X137961Y141725D01*
X137938Y141729D01*
G37*
%LPD*%
%LPC*%
G36*
X266699Y563899D02*
X266699Y563899D01*
X266699Y570620D01*
X267862Y570242D01*
X269201Y569560D01*
X270415Y568677D01*
X271477Y567615D01*
X272360Y566401D01*
X273042Y565062D01*
X273420Y563899D01*
X266699Y563899D01*
G37*
%LPD*%
%LPC*%
G36*
X546099Y563899D02*
X546099Y563899D01*
X546099Y570620D01*
X547262Y570242D01*
X548601Y569560D01*
X549815Y568677D01*
X550877Y567615D01*
X551760Y566401D01*
X552442Y565062D01*
X552820Y563899D01*
X546099Y563899D01*
G37*
%LPD*%
%LPC*%
G36*
X165099Y563899D02*
X165099Y563899D01*
X165099Y570620D01*
X166262Y570242D01*
X167601Y569560D01*
X168815Y568677D01*
X169877Y567615D01*
X170760Y566401D01*
X171442Y565062D01*
X171820Y563899D01*
X165099Y563899D01*
G37*
%LPD*%
%LPC*%
G36*
X153380Y563899D02*
X153380Y563899D01*
X153758Y565062D01*
X154440Y566401D01*
X155323Y567615D01*
X156385Y568677D01*
X157599Y569560D01*
X158938Y570242D01*
X160101Y570620D01*
X160101Y563899D01*
X153380Y563899D01*
G37*
%LPD*%
%LPC*%
G36*
X254980Y563899D02*
X254980Y563899D01*
X255358Y565062D01*
X256040Y566401D01*
X256923Y567615D01*
X257985Y568677D01*
X259199Y569560D01*
X260538Y570242D01*
X261701Y570620D01*
X261701Y563899D01*
X254980Y563899D01*
G37*
%LPD*%
%LPC*%
G36*
X534380Y563899D02*
X534380Y563899D01*
X534758Y565062D01*
X535440Y566401D01*
X536323Y567615D01*
X537385Y568677D01*
X538599Y569560D01*
X539938Y570242D01*
X541101Y570620D01*
X541101Y563899D01*
X534380Y563899D01*
G37*
%LPD*%
%LPC*%
G36*
X165099Y558901D02*
X165099Y558901D01*
X171820Y558901D01*
X171442Y557738D01*
X170760Y556399D01*
X169877Y555185D01*
X168815Y554123D01*
X167601Y553240D01*
X166262Y552558D01*
X165099Y552180D01*
X165099Y558901D01*
G37*
%LPD*%
%LPC*%
G36*
X546099Y558901D02*
X546099Y558901D01*
X552820Y558901D01*
X552442Y557738D01*
X551760Y556399D01*
X550877Y555185D01*
X549815Y554123D01*
X548601Y553240D01*
X547262Y552558D01*
X546099Y552180D01*
X546099Y558901D01*
G37*
%LPD*%
%LPC*%
G36*
X266699Y558901D02*
X266699Y558901D01*
X273420Y558901D01*
X273042Y557738D01*
X272360Y556399D01*
X271477Y555185D01*
X270415Y554123D01*
X269201Y553240D01*
X267862Y552558D01*
X266699Y552180D01*
X266699Y558901D01*
G37*
%LPD*%
%LPC*%
G36*
X158938Y552558D02*
X158938Y552558D01*
X157599Y553240D01*
X156385Y554123D01*
X155323Y555185D01*
X154440Y556399D01*
X153758Y557738D01*
X153380Y558901D01*
X160101Y558901D01*
X160101Y552180D01*
X158938Y552558D01*
G37*
%LPD*%
%LPC*%
G36*
X260538Y552558D02*
X260538Y552558D01*
X259199Y553240D01*
X257985Y554123D01*
X256923Y555185D01*
X256040Y556399D01*
X255358Y557738D01*
X254980Y558901D01*
X261701Y558901D01*
X261701Y552180D01*
X260538Y552558D01*
G37*
%LPD*%
%LPC*%
G36*
X539938Y552558D02*
X539938Y552558D01*
X538599Y553240D01*
X537385Y554123D01*
X536323Y555185D01*
X535440Y556399D01*
X534758Y557738D01*
X534380Y558901D01*
X541101Y558901D01*
X541101Y552180D01*
X539938Y552558D01*
G37*
%LPD*%
%LPC*%
G36*
X717822Y215322D02*
X717822Y215322D01*
X717822Y221593D01*
X718156Y221527D01*
X719751Y220866D01*
X721187Y219907D01*
X722407Y218687D01*
X723366Y217251D01*
X724027Y215656D01*
X724093Y215322D01*
X717822Y215322D01*
G37*
%LPD*%
%LPC*%
G36*
X205422Y395922D02*
X205422Y395922D01*
X205422Y402193D01*
X205756Y402127D01*
X207351Y401466D01*
X208787Y400507D01*
X210007Y399287D01*
X210966Y397851D01*
X211627Y396256D01*
X211693Y395922D01*
X205422Y395922D01*
G37*
%LPD*%
%LPC*%
G36*
X641622Y443922D02*
X641622Y443922D01*
X641622Y450193D01*
X641956Y450127D01*
X643551Y449466D01*
X644987Y448507D01*
X646207Y447287D01*
X647166Y445851D01*
X647827Y444256D01*
X647893Y443922D01*
X641622Y443922D01*
G37*
%LPD*%
%LPC*%
G36*
X194707Y395922D02*
X194707Y395922D01*
X194773Y396256D01*
X195434Y397851D01*
X196393Y399287D01*
X197613Y400507D01*
X199049Y401466D01*
X200644Y402127D01*
X200978Y402193D01*
X200978Y395922D01*
X194707Y395922D01*
G37*
%LPD*%
%LPC*%
G36*
X707107Y215322D02*
X707107Y215322D01*
X707173Y215656D01*
X707834Y217251D01*
X708793Y218687D01*
X710013Y219907D01*
X711449Y220866D01*
X713044Y221527D01*
X713378Y221593D01*
X713378Y215322D01*
X707107Y215322D01*
G37*
%LPD*%
%LPC*%
G36*
X630907Y443922D02*
X630907Y443922D01*
X630973Y444256D01*
X631634Y445851D01*
X632593Y447287D01*
X633813Y448507D01*
X635249Y449466D01*
X636844Y450127D01*
X637178Y450193D01*
X637178Y443922D01*
X630907Y443922D01*
G37*
%LPD*%
%LPC*%
G36*
X205422Y391478D02*
X205422Y391478D01*
X211693Y391478D01*
X211627Y391144D01*
X210966Y389549D01*
X210007Y388113D01*
X208787Y386893D01*
X207351Y385934D01*
X205756Y385273D01*
X205422Y385207D01*
X205422Y391478D01*
G37*
%LPD*%
%LPC*%
G36*
X641622Y439478D02*
X641622Y439478D01*
X647893Y439478D01*
X647827Y439144D01*
X647166Y437549D01*
X646207Y436113D01*
X644987Y434893D01*
X643551Y433934D01*
X641956Y433273D01*
X641622Y433207D01*
X641622Y439478D01*
G37*
%LPD*%
%LPC*%
G36*
X717822Y210878D02*
X717822Y210878D01*
X724093Y210878D01*
X724027Y210544D01*
X723366Y208949D01*
X722407Y207513D01*
X721187Y206293D01*
X719751Y205334D01*
X718156Y204673D01*
X717822Y204607D01*
X717822Y210878D01*
G37*
%LPD*%
%LPC*%
G36*
X636844Y433273D02*
X636844Y433273D01*
X635249Y433934D01*
X633813Y434893D01*
X632593Y436113D01*
X631634Y437549D01*
X630973Y439144D01*
X630907Y439478D01*
X637178Y439478D01*
X637178Y433207D01*
X636844Y433273D01*
G37*
%LPD*%
%LPC*%
G36*
X713044Y204673D02*
X713044Y204673D01*
X711449Y205334D01*
X710013Y206293D01*
X708793Y207513D01*
X707834Y208949D01*
X707173Y210544D01*
X707107Y210878D01*
X713378Y210878D01*
X713378Y204607D01*
X713044Y204673D01*
G37*
%LPD*%
%LPC*%
G36*
X200644Y385273D02*
X200644Y385273D01*
X199049Y385934D01*
X197613Y386893D01*
X196393Y388113D01*
X195434Y389549D01*
X194773Y391144D01*
X194707Y391478D01*
X200978Y391478D01*
X200978Y385207D01*
X200644Y385273D01*
G37*
%LPD*%
%LPC*%
G36*
X471931Y116331D02*
X471931Y116331D01*
X471931Y122288D01*
X472301Y122214D01*
X473798Y121594D01*
X475147Y120693D01*
X476293Y119547D01*
X477194Y118198D01*
X477814Y116701D01*
X477888Y116331D01*
X471931Y116331D01*
G37*
%LPD*%
%LPC*%
G36*
X461912Y116331D02*
X461912Y116331D01*
X461986Y116701D01*
X462606Y118198D01*
X463507Y119547D01*
X464653Y120693D01*
X466002Y121594D01*
X467499Y122214D01*
X467869Y122288D01*
X467869Y116331D01*
X461912Y116331D01*
G37*
%LPD*%
%LPC*%
G36*
X471931Y112269D02*
X471931Y112269D01*
X477888Y112269D01*
X477814Y111899D01*
X477194Y110402D01*
X476293Y109053D01*
X475147Y107907D01*
X473798Y107006D01*
X472301Y106386D01*
X471931Y106312D01*
X471931Y112269D01*
G37*
%LPD*%
%LPC*%
G36*
X467499Y106386D02*
X467499Y106386D01*
X466002Y107006D01*
X464653Y107907D01*
X463507Y109053D01*
X462606Y110402D01*
X461986Y111899D01*
X461912Y112269D01*
X467869Y112269D01*
X467869Y106312D01*
X467499Y106386D01*
G37*
%LPD*%
%LPC*%
G36*
X140499Y152399D02*
X140499Y152399D01*
X140499Y152401D01*
X140501Y152401D01*
X140501Y152399D01*
X140499Y152399D01*
G37*
%LPD*%
D10*
X162600Y561400D03*
X188000Y561400D03*
X213400Y561400D03*
X238800Y561400D03*
X264200Y561400D03*
X289600Y561400D03*
X315000Y561400D03*
X340400Y561400D03*
X365800Y561400D03*
X391200Y561400D03*
X416600Y561400D03*
X442000Y561400D03*
X467400Y561400D03*
X492800Y561400D03*
X518200Y561400D03*
X543600Y561400D03*
D11*
X444500Y114300D03*
X469900Y114300D03*
D12*
X38100Y38100D03*
X38100Y596900D03*
X977900Y596900D03*
X977900Y38100D03*
D13*
X140500Y152400D03*
X190500Y152400D03*
X240500Y152400D03*
D14*
X893400Y187700D03*
X893400Y213100D03*
X868000Y187700D03*
X868000Y213100D03*
X842600Y187700D03*
X842600Y213100D03*
X817200Y187700D03*
X817200Y213100D03*
X791800Y187700D03*
X791800Y213100D03*
X766400Y187700D03*
X766400Y213100D03*
X741000Y187700D03*
X741000Y213100D03*
X715600Y187700D03*
X715600Y213100D03*
X690200Y187700D03*
X690200Y213100D03*
X664800Y187700D03*
X664800Y213100D03*
X639400Y187700D03*
X639400Y213100D03*
X614000Y187700D03*
X614000Y213100D03*
X588600Y187700D03*
X588600Y213100D03*
X563200Y187700D03*
X563200Y213100D03*
X537800Y187700D03*
X537800Y213100D03*
X512400Y187700D03*
X512400Y213100D03*
X487000Y187700D03*
X487000Y213100D03*
X461600Y187700D03*
X461600Y213100D03*
X893400Y441700D03*
X893400Y467100D03*
X868000Y441700D03*
X868000Y467100D03*
X842600Y441700D03*
X842600Y467100D03*
X817200Y441700D03*
X817200Y467100D03*
X791800Y441700D03*
X791800Y467100D03*
X766400Y441700D03*
X766400Y467100D03*
X741000Y441700D03*
X741000Y467100D03*
X715600Y441700D03*
X715600Y467100D03*
X690200Y441700D03*
X690200Y467100D03*
X664800Y441700D03*
X664800Y467100D03*
X639400Y441700D03*
X639400Y467100D03*
X614000Y441700D03*
X614000Y467100D03*
X588600Y441700D03*
X588600Y467100D03*
X563200Y441700D03*
X563200Y467100D03*
X537800Y441700D03*
X537800Y467100D03*
X512400Y441700D03*
X512400Y467100D03*
X487000Y441700D03*
X487000Y467100D03*
X461600Y441700D03*
X461600Y467100D03*
X203200Y266700D03*
X203200Y241300D03*
X203200Y419100D03*
X203200Y393700D03*
X203200Y368300D03*
X203200Y317500D03*
X203200Y292100D03*
X203200Y342900D03*
D15*
X736600Y50800D03*
X488950Y114300D03*
X831850Y101600D03*
X920750Y69850D03*
M02*
