G04 EAGLE Gerber RS-274X export*
G75*
%MOMM*%
%FSLAX34Y34*%
%LPD*%
%IN*%
%IPPOS*%
%AMOC8*
5,1,8,0,0,1.08239X$1,22.5*%
G01*
%ADD10C,0.254000*%


D10*
X0Y0D02*
X1015800Y0D01*
X1015800Y631700D01*
X0Y631700D01*
X0Y0D01*
X120100Y250909D02*
X120023Y249930D01*
X119869Y248960D01*
X119640Y248004D01*
X119336Y247070D01*
X118961Y246163D01*
X118515Y245288D01*
X118001Y244450D01*
X117424Y243655D01*
X116786Y242908D01*
X116092Y242214D01*
X115345Y241576D01*
X114550Y240999D01*
X113712Y240485D01*
X112837Y240039D01*
X111930Y239664D01*
X110996Y239360D01*
X110041Y239131D01*
X109070Y238977D01*
X108091Y238900D01*
X107109Y238900D01*
X106130Y238977D01*
X105160Y239131D01*
X104204Y239360D01*
X103270Y239664D01*
X102363Y240039D01*
X101488Y240485D01*
X100650Y240999D01*
X99855Y241576D01*
X99108Y242214D01*
X98414Y242908D01*
X97776Y243655D01*
X97199Y244450D01*
X96685Y245288D01*
X96239Y246163D01*
X95864Y247070D01*
X95560Y248004D01*
X95331Y248960D01*
X95177Y249930D01*
X95100Y250909D01*
X95100Y251891D01*
X95177Y252870D01*
X95331Y253841D01*
X95560Y254796D01*
X95864Y255730D01*
X96239Y256637D01*
X96685Y257512D01*
X97199Y258350D01*
X97776Y259145D01*
X98414Y259892D01*
X99108Y260586D01*
X99855Y261224D01*
X100650Y261801D01*
X101488Y262315D01*
X102363Y262761D01*
X103270Y263136D01*
X104204Y263440D01*
X105160Y263669D01*
X106130Y263823D01*
X107109Y263900D01*
X108091Y263900D01*
X109070Y263823D01*
X110041Y263669D01*
X110996Y263440D01*
X111930Y263136D01*
X112837Y262761D01*
X113712Y262315D01*
X114550Y261801D01*
X115345Y261224D01*
X116092Y260586D01*
X116786Y259892D01*
X117424Y259145D01*
X118001Y258350D01*
X118515Y257512D01*
X118961Y256637D01*
X119336Y255730D01*
X119640Y254796D01*
X119869Y253841D01*
X120023Y252870D01*
X120100Y251891D01*
X120100Y250909D01*
X870100Y250909D02*
X870023Y249930D01*
X869869Y248960D01*
X869640Y248004D01*
X869336Y247070D01*
X868961Y246163D01*
X868515Y245288D01*
X868001Y244450D01*
X867424Y243655D01*
X866786Y242908D01*
X866092Y242214D01*
X865345Y241576D01*
X864550Y240999D01*
X863712Y240485D01*
X862837Y240039D01*
X861930Y239664D01*
X860996Y239360D01*
X860041Y239131D01*
X859070Y238977D01*
X858091Y238900D01*
X857109Y238900D01*
X856130Y238977D01*
X855160Y239131D01*
X854204Y239360D01*
X853270Y239664D01*
X852363Y240039D01*
X851488Y240485D01*
X850650Y240999D01*
X849855Y241576D01*
X849108Y242214D01*
X848414Y242908D01*
X847776Y243655D01*
X847199Y244450D01*
X846685Y245288D01*
X846239Y246163D01*
X845864Y247070D01*
X845560Y248004D01*
X845331Y248960D01*
X845177Y249930D01*
X845100Y250909D01*
X845100Y251891D01*
X845177Y252870D01*
X845331Y253841D01*
X845560Y254796D01*
X845864Y255730D01*
X846239Y256637D01*
X846685Y257512D01*
X847199Y258350D01*
X847776Y259145D01*
X848414Y259892D01*
X849108Y260586D01*
X849855Y261224D01*
X850650Y261801D01*
X851488Y262315D01*
X852363Y262761D01*
X853270Y263136D01*
X854204Y263440D01*
X855160Y263669D01*
X856130Y263823D01*
X857109Y263900D01*
X858091Y263900D01*
X859070Y263823D01*
X860041Y263669D01*
X860996Y263440D01*
X861930Y263136D01*
X862837Y262761D01*
X863712Y262315D01*
X864550Y261801D01*
X865345Y261224D01*
X866092Y260586D01*
X866786Y259892D01*
X867424Y259145D01*
X868001Y258350D01*
X868515Y257512D01*
X868961Y256637D01*
X869336Y255730D01*
X869640Y254796D01*
X869869Y253841D01*
X870023Y252870D01*
X870100Y251891D01*
X870100Y250909D01*
X120100Y560909D02*
X120023Y559930D01*
X119869Y558960D01*
X119640Y558004D01*
X119336Y557070D01*
X118961Y556163D01*
X118515Y555288D01*
X118001Y554450D01*
X117424Y553655D01*
X116786Y552908D01*
X116092Y552214D01*
X115345Y551576D01*
X114550Y550999D01*
X113712Y550485D01*
X112837Y550039D01*
X111930Y549664D01*
X110996Y549360D01*
X110041Y549131D01*
X109070Y548977D01*
X108091Y548900D01*
X107109Y548900D01*
X106130Y548977D01*
X105160Y549131D01*
X104204Y549360D01*
X103270Y549664D01*
X102363Y550039D01*
X101488Y550485D01*
X100650Y550999D01*
X99855Y551576D01*
X99108Y552214D01*
X98414Y552908D01*
X97776Y553655D01*
X97199Y554450D01*
X96685Y555288D01*
X96239Y556163D01*
X95864Y557070D01*
X95560Y558004D01*
X95331Y558960D01*
X95177Y559930D01*
X95100Y560909D01*
X95100Y561891D01*
X95177Y562870D01*
X95331Y563841D01*
X95560Y564796D01*
X95864Y565730D01*
X96239Y566637D01*
X96685Y567512D01*
X97199Y568350D01*
X97776Y569145D01*
X98414Y569892D01*
X99108Y570586D01*
X99855Y571224D01*
X100650Y571801D01*
X101488Y572315D01*
X102363Y572761D01*
X103270Y573136D01*
X104204Y573440D01*
X105160Y573669D01*
X106130Y573823D01*
X107109Y573900D01*
X108091Y573900D01*
X109070Y573823D01*
X110041Y573669D01*
X110996Y573440D01*
X111930Y573136D01*
X112837Y572761D01*
X113712Y572315D01*
X114550Y571801D01*
X115345Y571224D01*
X116092Y570586D01*
X116786Y569892D01*
X117424Y569145D01*
X118001Y568350D01*
X118515Y567512D01*
X118961Y566637D01*
X119336Y565730D01*
X119640Y564796D01*
X119869Y563841D01*
X120023Y562870D01*
X120100Y561891D01*
X120100Y560909D01*
X870100Y560909D02*
X870023Y559930D01*
X869869Y558960D01*
X869640Y558004D01*
X869336Y557070D01*
X868961Y556163D01*
X868515Y555288D01*
X868001Y554450D01*
X867424Y553655D01*
X866786Y552908D01*
X866092Y552214D01*
X865345Y551576D01*
X864550Y550999D01*
X863712Y550485D01*
X862837Y550039D01*
X861930Y549664D01*
X860996Y549360D01*
X860041Y549131D01*
X859070Y548977D01*
X858091Y548900D01*
X857109Y548900D01*
X856130Y548977D01*
X855160Y549131D01*
X854204Y549360D01*
X853270Y549664D01*
X852363Y550039D01*
X851488Y550485D01*
X850650Y550999D01*
X849855Y551576D01*
X849108Y552214D01*
X848414Y552908D01*
X847776Y553655D01*
X847199Y554450D01*
X846685Y555288D01*
X846239Y556163D01*
X845864Y557070D01*
X845560Y558004D01*
X845331Y558960D01*
X845177Y559930D01*
X845100Y560909D01*
X845100Y561891D01*
X845177Y562870D01*
X845331Y563841D01*
X845560Y564796D01*
X845864Y565730D01*
X846239Y566637D01*
X846685Y567512D01*
X847199Y568350D01*
X847776Y569145D01*
X848414Y569892D01*
X849108Y570586D01*
X849855Y571224D01*
X850650Y571801D01*
X851488Y572315D01*
X852363Y572761D01*
X853270Y573136D01*
X854204Y573440D01*
X855160Y573669D01*
X856130Y573823D01*
X857109Y573900D01*
X858091Y573900D01*
X859070Y573823D01*
X860041Y573669D01*
X860996Y573440D01*
X861930Y573136D01*
X862837Y572761D01*
X863712Y572315D01*
X864550Y571801D01*
X865345Y571224D01*
X866092Y570586D01*
X866786Y569892D01*
X867424Y569145D01*
X868001Y568350D01*
X868515Y567512D01*
X868961Y566637D01*
X869336Y565730D01*
X869640Y564796D01*
X869869Y563841D01*
X870023Y562870D01*
X870100Y561891D01*
X870100Y560909D01*
M02*
