G04 EAGLE Gerber RS-274X export*
G75*
%MOMM*%
%FSLAX34Y34*%
%LPD*%
%INSoldermask Top*%
%IPPOS*%
%AMOC8*
5,1,8,0,0,1.08239X$1,22.5*%
G01*
%ADD10C,1.828800*%
%ADD11C,2.652400*%
%ADD12C,0.609600*%
%ADD13C,1.168400*%
%ADD14P,1.396628X8X22.500000*%
%ADD15C,4.597400*%
%ADD16C,2.336800*%
%ADD17R,1.102359X1.183641*%
%ADD18R,1.352400X2.652400*%
%ADD19R,1.676400X1.676400*%
%ADD20P,1.814519X8X202.500000*%
%ADD21C,1.803400*%
%ADD22R,1.803400X1.803400*%


D10*
X162600Y561400D03*
X188000Y561400D03*
X213400Y561400D03*
X238800Y561400D03*
X264200Y561400D03*
X289600Y561400D03*
X315000Y561400D03*
X340400Y561400D03*
X365800Y561400D03*
X391200Y561400D03*
X416600Y561400D03*
X442000Y561400D03*
X467400Y561400D03*
X492800Y561400D03*
X518200Y561400D03*
X543600Y561400D03*
D11*
X107600Y251400D03*
X857600Y251400D03*
X107600Y561400D03*
X857600Y561400D03*
D12*
X970280Y127000D02*
X970282Y127187D01*
X970289Y127374D01*
X970301Y127561D01*
X970317Y127747D01*
X970337Y127933D01*
X970362Y128118D01*
X970392Y128303D01*
X970426Y128487D01*
X970465Y128670D01*
X970508Y128852D01*
X970556Y129032D01*
X970608Y129212D01*
X970665Y129390D01*
X970725Y129567D01*
X970791Y129742D01*
X970860Y129916D01*
X970934Y130088D01*
X971012Y130258D01*
X971094Y130426D01*
X971180Y130592D01*
X971270Y130756D01*
X971364Y130917D01*
X971462Y131077D01*
X971564Y131233D01*
X971670Y131388D01*
X971780Y131539D01*
X971893Y131688D01*
X972010Y131834D01*
X972130Y131977D01*
X972254Y132117D01*
X972381Y132254D01*
X972512Y132388D01*
X972646Y132519D01*
X972783Y132646D01*
X972923Y132770D01*
X973066Y132890D01*
X973212Y133007D01*
X973361Y133120D01*
X973512Y133230D01*
X973667Y133336D01*
X973823Y133438D01*
X973983Y133536D01*
X974144Y133630D01*
X974308Y133720D01*
X974474Y133806D01*
X974642Y133888D01*
X974812Y133966D01*
X974984Y134040D01*
X975158Y134109D01*
X975333Y134175D01*
X975510Y134235D01*
X975688Y134292D01*
X975868Y134344D01*
X976048Y134392D01*
X976230Y134435D01*
X976413Y134474D01*
X976597Y134508D01*
X976782Y134538D01*
X976967Y134563D01*
X977153Y134583D01*
X977339Y134599D01*
X977526Y134611D01*
X977713Y134618D01*
X977900Y134620D01*
X978087Y134618D01*
X978274Y134611D01*
X978461Y134599D01*
X978647Y134583D01*
X978833Y134563D01*
X979018Y134538D01*
X979203Y134508D01*
X979387Y134474D01*
X979570Y134435D01*
X979752Y134392D01*
X979932Y134344D01*
X980112Y134292D01*
X980290Y134235D01*
X980467Y134175D01*
X980642Y134109D01*
X980816Y134040D01*
X980988Y133966D01*
X981158Y133888D01*
X981326Y133806D01*
X981492Y133720D01*
X981656Y133630D01*
X981817Y133536D01*
X981977Y133438D01*
X982133Y133336D01*
X982288Y133230D01*
X982439Y133120D01*
X982588Y133007D01*
X982734Y132890D01*
X982877Y132770D01*
X983017Y132646D01*
X983154Y132519D01*
X983288Y132388D01*
X983419Y132254D01*
X983546Y132117D01*
X983670Y131977D01*
X983790Y131834D01*
X983907Y131688D01*
X984020Y131539D01*
X984130Y131388D01*
X984236Y131233D01*
X984338Y131077D01*
X984436Y130917D01*
X984530Y130756D01*
X984620Y130592D01*
X984706Y130426D01*
X984788Y130258D01*
X984866Y130088D01*
X984940Y129916D01*
X985009Y129742D01*
X985075Y129567D01*
X985135Y129390D01*
X985192Y129212D01*
X985244Y129032D01*
X985292Y128852D01*
X985335Y128670D01*
X985374Y128487D01*
X985408Y128303D01*
X985438Y128118D01*
X985463Y127933D01*
X985483Y127747D01*
X985499Y127561D01*
X985511Y127374D01*
X985518Y127187D01*
X985520Y127000D01*
X985518Y126813D01*
X985511Y126626D01*
X985499Y126439D01*
X985483Y126253D01*
X985463Y126067D01*
X985438Y125882D01*
X985408Y125697D01*
X985374Y125513D01*
X985335Y125330D01*
X985292Y125148D01*
X985244Y124968D01*
X985192Y124788D01*
X985135Y124610D01*
X985075Y124433D01*
X985009Y124258D01*
X984940Y124084D01*
X984866Y123912D01*
X984788Y123742D01*
X984706Y123574D01*
X984620Y123408D01*
X984530Y123244D01*
X984436Y123083D01*
X984338Y122923D01*
X984236Y122767D01*
X984130Y122612D01*
X984020Y122461D01*
X983907Y122312D01*
X983790Y122166D01*
X983670Y122023D01*
X983546Y121883D01*
X983419Y121746D01*
X983288Y121612D01*
X983154Y121481D01*
X983017Y121354D01*
X982877Y121230D01*
X982734Y121110D01*
X982588Y120993D01*
X982439Y120880D01*
X982288Y120770D01*
X982133Y120664D01*
X981977Y120562D01*
X981817Y120464D01*
X981656Y120370D01*
X981492Y120280D01*
X981326Y120194D01*
X981158Y120112D01*
X980988Y120034D01*
X980816Y119960D01*
X980642Y119891D01*
X980467Y119825D01*
X980290Y119765D01*
X980112Y119708D01*
X979932Y119656D01*
X979752Y119608D01*
X979570Y119565D01*
X979387Y119526D01*
X979203Y119492D01*
X979018Y119462D01*
X978833Y119437D01*
X978647Y119417D01*
X978461Y119401D01*
X978274Y119389D01*
X978087Y119382D01*
X977900Y119380D01*
X977713Y119382D01*
X977526Y119389D01*
X977339Y119401D01*
X977153Y119417D01*
X976967Y119437D01*
X976782Y119462D01*
X976597Y119492D01*
X976413Y119526D01*
X976230Y119565D01*
X976048Y119608D01*
X975868Y119656D01*
X975688Y119708D01*
X975510Y119765D01*
X975333Y119825D01*
X975158Y119891D01*
X974984Y119960D01*
X974812Y120034D01*
X974642Y120112D01*
X974474Y120194D01*
X974308Y120280D01*
X974144Y120370D01*
X973983Y120464D01*
X973823Y120562D01*
X973667Y120664D01*
X973512Y120770D01*
X973361Y120880D01*
X973212Y120993D01*
X973066Y121110D01*
X972923Y121230D01*
X972783Y121354D01*
X972646Y121481D01*
X972512Y121612D01*
X972381Y121746D01*
X972254Y121883D01*
X972130Y122023D01*
X972010Y122166D01*
X971893Y122312D01*
X971780Y122461D01*
X971670Y122612D01*
X971564Y122767D01*
X971462Y122923D01*
X971364Y123083D01*
X971270Y123244D01*
X971180Y123408D01*
X971094Y123574D01*
X971012Y123742D01*
X970934Y123912D01*
X970860Y124084D01*
X970791Y124258D01*
X970725Y124433D01*
X970665Y124610D01*
X970608Y124788D01*
X970556Y124968D01*
X970508Y125148D01*
X970465Y125330D01*
X970426Y125513D01*
X970392Y125697D01*
X970362Y125882D01*
X970337Y126067D01*
X970317Y126253D01*
X970301Y126439D01*
X970289Y126626D01*
X970282Y126813D01*
X970280Y127000D01*
D13*
X977900Y127000D03*
D12*
X970280Y127000D02*
X970282Y127187D01*
X970289Y127374D01*
X970301Y127561D01*
X970317Y127747D01*
X970337Y127933D01*
X970362Y128118D01*
X970392Y128303D01*
X970426Y128487D01*
X970465Y128670D01*
X970508Y128852D01*
X970556Y129032D01*
X970608Y129212D01*
X970665Y129390D01*
X970725Y129567D01*
X970791Y129742D01*
X970860Y129916D01*
X970934Y130088D01*
X971012Y130258D01*
X971094Y130426D01*
X971180Y130592D01*
X971270Y130756D01*
X971364Y130917D01*
X971462Y131077D01*
X971564Y131233D01*
X971670Y131388D01*
X971780Y131539D01*
X971893Y131688D01*
X972010Y131834D01*
X972130Y131977D01*
X972254Y132117D01*
X972381Y132254D01*
X972512Y132388D01*
X972646Y132519D01*
X972783Y132646D01*
X972923Y132770D01*
X973066Y132890D01*
X973212Y133007D01*
X973361Y133120D01*
X973512Y133230D01*
X973667Y133336D01*
X973823Y133438D01*
X973983Y133536D01*
X974144Y133630D01*
X974308Y133720D01*
X974474Y133806D01*
X974642Y133888D01*
X974812Y133966D01*
X974984Y134040D01*
X975158Y134109D01*
X975333Y134175D01*
X975510Y134235D01*
X975688Y134292D01*
X975868Y134344D01*
X976048Y134392D01*
X976230Y134435D01*
X976413Y134474D01*
X976597Y134508D01*
X976782Y134538D01*
X976967Y134563D01*
X977153Y134583D01*
X977339Y134599D01*
X977526Y134611D01*
X977713Y134618D01*
X977900Y134620D01*
X978087Y134618D01*
X978274Y134611D01*
X978461Y134599D01*
X978647Y134583D01*
X978833Y134563D01*
X979018Y134538D01*
X979203Y134508D01*
X979387Y134474D01*
X979570Y134435D01*
X979752Y134392D01*
X979932Y134344D01*
X980112Y134292D01*
X980290Y134235D01*
X980467Y134175D01*
X980642Y134109D01*
X980816Y134040D01*
X980988Y133966D01*
X981158Y133888D01*
X981326Y133806D01*
X981492Y133720D01*
X981656Y133630D01*
X981817Y133536D01*
X981977Y133438D01*
X982133Y133336D01*
X982288Y133230D01*
X982439Y133120D01*
X982588Y133007D01*
X982734Y132890D01*
X982877Y132770D01*
X983017Y132646D01*
X983154Y132519D01*
X983288Y132388D01*
X983419Y132254D01*
X983546Y132117D01*
X983670Y131977D01*
X983790Y131834D01*
X983907Y131688D01*
X984020Y131539D01*
X984130Y131388D01*
X984236Y131233D01*
X984338Y131077D01*
X984436Y130917D01*
X984530Y130756D01*
X984620Y130592D01*
X984706Y130426D01*
X984788Y130258D01*
X984866Y130088D01*
X984940Y129916D01*
X985009Y129742D01*
X985075Y129567D01*
X985135Y129390D01*
X985192Y129212D01*
X985244Y129032D01*
X985292Y128852D01*
X985335Y128670D01*
X985374Y128487D01*
X985408Y128303D01*
X985438Y128118D01*
X985463Y127933D01*
X985483Y127747D01*
X985499Y127561D01*
X985511Y127374D01*
X985518Y127187D01*
X985520Y127000D01*
X985518Y126813D01*
X985511Y126626D01*
X985499Y126439D01*
X985483Y126253D01*
X985463Y126067D01*
X985438Y125882D01*
X985408Y125697D01*
X985374Y125513D01*
X985335Y125330D01*
X985292Y125148D01*
X985244Y124968D01*
X985192Y124788D01*
X985135Y124610D01*
X985075Y124433D01*
X985009Y124258D01*
X984940Y124084D01*
X984866Y123912D01*
X984788Y123742D01*
X984706Y123574D01*
X984620Y123408D01*
X984530Y123244D01*
X984436Y123083D01*
X984338Y122923D01*
X984236Y122767D01*
X984130Y122612D01*
X984020Y122461D01*
X983907Y122312D01*
X983790Y122166D01*
X983670Y122023D01*
X983546Y121883D01*
X983419Y121746D01*
X983288Y121612D01*
X983154Y121481D01*
X983017Y121354D01*
X982877Y121230D01*
X982734Y121110D01*
X982588Y120993D01*
X982439Y120880D01*
X982288Y120770D01*
X982133Y120664D01*
X981977Y120562D01*
X981817Y120464D01*
X981656Y120370D01*
X981492Y120280D01*
X981326Y120194D01*
X981158Y120112D01*
X980988Y120034D01*
X980816Y119960D01*
X980642Y119891D01*
X980467Y119825D01*
X980290Y119765D01*
X980112Y119708D01*
X979932Y119656D01*
X979752Y119608D01*
X979570Y119565D01*
X979387Y119526D01*
X979203Y119492D01*
X979018Y119462D01*
X978833Y119437D01*
X978647Y119417D01*
X978461Y119401D01*
X978274Y119389D01*
X978087Y119382D01*
X977900Y119380D01*
X977713Y119382D01*
X977526Y119389D01*
X977339Y119401D01*
X977153Y119417D01*
X976967Y119437D01*
X976782Y119462D01*
X976597Y119492D01*
X976413Y119526D01*
X976230Y119565D01*
X976048Y119608D01*
X975868Y119656D01*
X975688Y119708D01*
X975510Y119765D01*
X975333Y119825D01*
X975158Y119891D01*
X974984Y119960D01*
X974812Y120034D01*
X974642Y120112D01*
X974474Y120194D01*
X974308Y120280D01*
X974144Y120370D01*
X973983Y120464D01*
X973823Y120562D01*
X973667Y120664D01*
X973512Y120770D01*
X973361Y120880D01*
X973212Y120993D01*
X973066Y121110D01*
X972923Y121230D01*
X972783Y121354D01*
X972646Y121481D01*
X972512Y121612D01*
X972381Y121746D01*
X972254Y121883D01*
X972130Y122023D01*
X972010Y122166D01*
X971893Y122312D01*
X971780Y122461D01*
X971670Y122612D01*
X971564Y122767D01*
X971462Y122923D01*
X971364Y123083D01*
X971270Y123244D01*
X971180Y123408D01*
X971094Y123574D01*
X971012Y123742D01*
X970934Y123912D01*
X970860Y124084D01*
X970791Y124258D01*
X970725Y124433D01*
X970665Y124610D01*
X970608Y124788D01*
X970556Y124968D01*
X970508Y125148D01*
X970465Y125330D01*
X970426Y125513D01*
X970392Y125697D01*
X970362Y125882D01*
X970337Y126067D01*
X970317Y126253D01*
X970301Y126439D01*
X970289Y126626D01*
X970282Y126813D01*
X970280Y127000D01*
D13*
X977900Y127000D03*
D12*
X30480Y127000D02*
X30482Y127187D01*
X30489Y127374D01*
X30501Y127561D01*
X30517Y127747D01*
X30537Y127933D01*
X30562Y128118D01*
X30592Y128303D01*
X30626Y128487D01*
X30665Y128670D01*
X30708Y128852D01*
X30756Y129032D01*
X30808Y129212D01*
X30865Y129390D01*
X30925Y129567D01*
X30991Y129742D01*
X31060Y129916D01*
X31134Y130088D01*
X31212Y130258D01*
X31294Y130426D01*
X31380Y130592D01*
X31470Y130756D01*
X31564Y130917D01*
X31662Y131077D01*
X31764Y131233D01*
X31870Y131388D01*
X31980Y131539D01*
X32093Y131688D01*
X32210Y131834D01*
X32330Y131977D01*
X32454Y132117D01*
X32581Y132254D01*
X32712Y132388D01*
X32846Y132519D01*
X32983Y132646D01*
X33123Y132770D01*
X33266Y132890D01*
X33412Y133007D01*
X33561Y133120D01*
X33712Y133230D01*
X33867Y133336D01*
X34023Y133438D01*
X34183Y133536D01*
X34344Y133630D01*
X34508Y133720D01*
X34674Y133806D01*
X34842Y133888D01*
X35012Y133966D01*
X35184Y134040D01*
X35358Y134109D01*
X35533Y134175D01*
X35710Y134235D01*
X35888Y134292D01*
X36068Y134344D01*
X36248Y134392D01*
X36430Y134435D01*
X36613Y134474D01*
X36797Y134508D01*
X36982Y134538D01*
X37167Y134563D01*
X37353Y134583D01*
X37539Y134599D01*
X37726Y134611D01*
X37913Y134618D01*
X38100Y134620D01*
X38287Y134618D01*
X38474Y134611D01*
X38661Y134599D01*
X38847Y134583D01*
X39033Y134563D01*
X39218Y134538D01*
X39403Y134508D01*
X39587Y134474D01*
X39770Y134435D01*
X39952Y134392D01*
X40132Y134344D01*
X40312Y134292D01*
X40490Y134235D01*
X40667Y134175D01*
X40842Y134109D01*
X41016Y134040D01*
X41188Y133966D01*
X41358Y133888D01*
X41526Y133806D01*
X41692Y133720D01*
X41856Y133630D01*
X42017Y133536D01*
X42177Y133438D01*
X42333Y133336D01*
X42488Y133230D01*
X42639Y133120D01*
X42788Y133007D01*
X42934Y132890D01*
X43077Y132770D01*
X43217Y132646D01*
X43354Y132519D01*
X43488Y132388D01*
X43619Y132254D01*
X43746Y132117D01*
X43870Y131977D01*
X43990Y131834D01*
X44107Y131688D01*
X44220Y131539D01*
X44330Y131388D01*
X44436Y131233D01*
X44538Y131077D01*
X44636Y130917D01*
X44730Y130756D01*
X44820Y130592D01*
X44906Y130426D01*
X44988Y130258D01*
X45066Y130088D01*
X45140Y129916D01*
X45209Y129742D01*
X45275Y129567D01*
X45335Y129390D01*
X45392Y129212D01*
X45444Y129032D01*
X45492Y128852D01*
X45535Y128670D01*
X45574Y128487D01*
X45608Y128303D01*
X45638Y128118D01*
X45663Y127933D01*
X45683Y127747D01*
X45699Y127561D01*
X45711Y127374D01*
X45718Y127187D01*
X45720Y127000D01*
X45718Y126813D01*
X45711Y126626D01*
X45699Y126439D01*
X45683Y126253D01*
X45663Y126067D01*
X45638Y125882D01*
X45608Y125697D01*
X45574Y125513D01*
X45535Y125330D01*
X45492Y125148D01*
X45444Y124968D01*
X45392Y124788D01*
X45335Y124610D01*
X45275Y124433D01*
X45209Y124258D01*
X45140Y124084D01*
X45066Y123912D01*
X44988Y123742D01*
X44906Y123574D01*
X44820Y123408D01*
X44730Y123244D01*
X44636Y123083D01*
X44538Y122923D01*
X44436Y122767D01*
X44330Y122612D01*
X44220Y122461D01*
X44107Y122312D01*
X43990Y122166D01*
X43870Y122023D01*
X43746Y121883D01*
X43619Y121746D01*
X43488Y121612D01*
X43354Y121481D01*
X43217Y121354D01*
X43077Y121230D01*
X42934Y121110D01*
X42788Y120993D01*
X42639Y120880D01*
X42488Y120770D01*
X42333Y120664D01*
X42177Y120562D01*
X42017Y120464D01*
X41856Y120370D01*
X41692Y120280D01*
X41526Y120194D01*
X41358Y120112D01*
X41188Y120034D01*
X41016Y119960D01*
X40842Y119891D01*
X40667Y119825D01*
X40490Y119765D01*
X40312Y119708D01*
X40132Y119656D01*
X39952Y119608D01*
X39770Y119565D01*
X39587Y119526D01*
X39403Y119492D01*
X39218Y119462D01*
X39033Y119437D01*
X38847Y119417D01*
X38661Y119401D01*
X38474Y119389D01*
X38287Y119382D01*
X38100Y119380D01*
X37913Y119382D01*
X37726Y119389D01*
X37539Y119401D01*
X37353Y119417D01*
X37167Y119437D01*
X36982Y119462D01*
X36797Y119492D01*
X36613Y119526D01*
X36430Y119565D01*
X36248Y119608D01*
X36068Y119656D01*
X35888Y119708D01*
X35710Y119765D01*
X35533Y119825D01*
X35358Y119891D01*
X35184Y119960D01*
X35012Y120034D01*
X34842Y120112D01*
X34674Y120194D01*
X34508Y120280D01*
X34344Y120370D01*
X34183Y120464D01*
X34023Y120562D01*
X33867Y120664D01*
X33712Y120770D01*
X33561Y120880D01*
X33412Y120993D01*
X33266Y121110D01*
X33123Y121230D01*
X32983Y121354D01*
X32846Y121481D01*
X32712Y121612D01*
X32581Y121746D01*
X32454Y121883D01*
X32330Y122023D01*
X32210Y122166D01*
X32093Y122312D01*
X31980Y122461D01*
X31870Y122612D01*
X31764Y122767D01*
X31662Y122923D01*
X31564Y123083D01*
X31470Y123244D01*
X31380Y123408D01*
X31294Y123574D01*
X31212Y123742D01*
X31134Y123912D01*
X31060Y124084D01*
X30991Y124258D01*
X30925Y124433D01*
X30865Y124610D01*
X30808Y124788D01*
X30756Y124968D01*
X30708Y125148D01*
X30665Y125330D01*
X30626Y125513D01*
X30592Y125697D01*
X30562Y125882D01*
X30537Y126067D01*
X30517Y126253D01*
X30501Y126439D01*
X30489Y126626D01*
X30482Y126813D01*
X30480Y127000D01*
D13*
X38100Y127000D03*
D12*
X30480Y508000D02*
X30482Y508187D01*
X30489Y508374D01*
X30501Y508561D01*
X30517Y508747D01*
X30537Y508933D01*
X30562Y509118D01*
X30592Y509303D01*
X30626Y509487D01*
X30665Y509670D01*
X30708Y509852D01*
X30756Y510032D01*
X30808Y510212D01*
X30865Y510390D01*
X30925Y510567D01*
X30991Y510742D01*
X31060Y510916D01*
X31134Y511088D01*
X31212Y511258D01*
X31294Y511426D01*
X31380Y511592D01*
X31470Y511756D01*
X31564Y511917D01*
X31662Y512077D01*
X31764Y512233D01*
X31870Y512388D01*
X31980Y512539D01*
X32093Y512688D01*
X32210Y512834D01*
X32330Y512977D01*
X32454Y513117D01*
X32581Y513254D01*
X32712Y513388D01*
X32846Y513519D01*
X32983Y513646D01*
X33123Y513770D01*
X33266Y513890D01*
X33412Y514007D01*
X33561Y514120D01*
X33712Y514230D01*
X33867Y514336D01*
X34023Y514438D01*
X34183Y514536D01*
X34344Y514630D01*
X34508Y514720D01*
X34674Y514806D01*
X34842Y514888D01*
X35012Y514966D01*
X35184Y515040D01*
X35358Y515109D01*
X35533Y515175D01*
X35710Y515235D01*
X35888Y515292D01*
X36068Y515344D01*
X36248Y515392D01*
X36430Y515435D01*
X36613Y515474D01*
X36797Y515508D01*
X36982Y515538D01*
X37167Y515563D01*
X37353Y515583D01*
X37539Y515599D01*
X37726Y515611D01*
X37913Y515618D01*
X38100Y515620D01*
X38287Y515618D01*
X38474Y515611D01*
X38661Y515599D01*
X38847Y515583D01*
X39033Y515563D01*
X39218Y515538D01*
X39403Y515508D01*
X39587Y515474D01*
X39770Y515435D01*
X39952Y515392D01*
X40132Y515344D01*
X40312Y515292D01*
X40490Y515235D01*
X40667Y515175D01*
X40842Y515109D01*
X41016Y515040D01*
X41188Y514966D01*
X41358Y514888D01*
X41526Y514806D01*
X41692Y514720D01*
X41856Y514630D01*
X42017Y514536D01*
X42177Y514438D01*
X42333Y514336D01*
X42488Y514230D01*
X42639Y514120D01*
X42788Y514007D01*
X42934Y513890D01*
X43077Y513770D01*
X43217Y513646D01*
X43354Y513519D01*
X43488Y513388D01*
X43619Y513254D01*
X43746Y513117D01*
X43870Y512977D01*
X43990Y512834D01*
X44107Y512688D01*
X44220Y512539D01*
X44330Y512388D01*
X44436Y512233D01*
X44538Y512077D01*
X44636Y511917D01*
X44730Y511756D01*
X44820Y511592D01*
X44906Y511426D01*
X44988Y511258D01*
X45066Y511088D01*
X45140Y510916D01*
X45209Y510742D01*
X45275Y510567D01*
X45335Y510390D01*
X45392Y510212D01*
X45444Y510032D01*
X45492Y509852D01*
X45535Y509670D01*
X45574Y509487D01*
X45608Y509303D01*
X45638Y509118D01*
X45663Y508933D01*
X45683Y508747D01*
X45699Y508561D01*
X45711Y508374D01*
X45718Y508187D01*
X45720Y508000D01*
X45718Y507813D01*
X45711Y507626D01*
X45699Y507439D01*
X45683Y507253D01*
X45663Y507067D01*
X45638Y506882D01*
X45608Y506697D01*
X45574Y506513D01*
X45535Y506330D01*
X45492Y506148D01*
X45444Y505968D01*
X45392Y505788D01*
X45335Y505610D01*
X45275Y505433D01*
X45209Y505258D01*
X45140Y505084D01*
X45066Y504912D01*
X44988Y504742D01*
X44906Y504574D01*
X44820Y504408D01*
X44730Y504244D01*
X44636Y504083D01*
X44538Y503923D01*
X44436Y503767D01*
X44330Y503612D01*
X44220Y503461D01*
X44107Y503312D01*
X43990Y503166D01*
X43870Y503023D01*
X43746Y502883D01*
X43619Y502746D01*
X43488Y502612D01*
X43354Y502481D01*
X43217Y502354D01*
X43077Y502230D01*
X42934Y502110D01*
X42788Y501993D01*
X42639Y501880D01*
X42488Y501770D01*
X42333Y501664D01*
X42177Y501562D01*
X42017Y501464D01*
X41856Y501370D01*
X41692Y501280D01*
X41526Y501194D01*
X41358Y501112D01*
X41188Y501034D01*
X41016Y500960D01*
X40842Y500891D01*
X40667Y500825D01*
X40490Y500765D01*
X40312Y500708D01*
X40132Y500656D01*
X39952Y500608D01*
X39770Y500565D01*
X39587Y500526D01*
X39403Y500492D01*
X39218Y500462D01*
X39033Y500437D01*
X38847Y500417D01*
X38661Y500401D01*
X38474Y500389D01*
X38287Y500382D01*
X38100Y500380D01*
X37913Y500382D01*
X37726Y500389D01*
X37539Y500401D01*
X37353Y500417D01*
X37167Y500437D01*
X36982Y500462D01*
X36797Y500492D01*
X36613Y500526D01*
X36430Y500565D01*
X36248Y500608D01*
X36068Y500656D01*
X35888Y500708D01*
X35710Y500765D01*
X35533Y500825D01*
X35358Y500891D01*
X35184Y500960D01*
X35012Y501034D01*
X34842Y501112D01*
X34674Y501194D01*
X34508Y501280D01*
X34344Y501370D01*
X34183Y501464D01*
X34023Y501562D01*
X33867Y501664D01*
X33712Y501770D01*
X33561Y501880D01*
X33412Y501993D01*
X33266Y502110D01*
X33123Y502230D01*
X32983Y502354D01*
X32846Y502481D01*
X32712Y502612D01*
X32581Y502746D01*
X32454Y502883D01*
X32330Y503023D01*
X32210Y503166D01*
X32093Y503312D01*
X31980Y503461D01*
X31870Y503612D01*
X31764Y503767D01*
X31662Y503923D01*
X31564Y504083D01*
X31470Y504244D01*
X31380Y504408D01*
X31294Y504574D01*
X31212Y504742D01*
X31134Y504912D01*
X31060Y505084D01*
X30991Y505258D01*
X30925Y505433D01*
X30865Y505610D01*
X30808Y505788D01*
X30756Y505968D01*
X30708Y506148D01*
X30665Y506330D01*
X30626Y506513D01*
X30592Y506697D01*
X30562Y506882D01*
X30537Y507067D01*
X30517Y507253D01*
X30501Y507439D01*
X30489Y507626D01*
X30482Y507813D01*
X30480Y508000D01*
D13*
X38100Y508000D03*
D12*
X30480Y127000D02*
X30482Y127187D01*
X30489Y127374D01*
X30501Y127561D01*
X30517Y127747D01*
X30537Y127933D01*
X30562Y128118D01*
X30592Y128303D01*
X30626Y128487D01*
X30665Y128670D01*
X30708Y128852D01*
X30756Y129032D01*
X30808Y129212D01*
X30865Y129390D01*
X30925Y129567D01*
X30991Y129742D01*
X31060Y129916D01*
X31134Y130088D01*
X31212Y130258D01*
X31294Y130426D01*
X31380Y130592D01*
X31470Y130756D01*
X31564Y130917D01*
X31662Y131077D01*
X31764Y131233D01*
X31870Y131388D01*
X31980Y131539D01*
X32093Y131688D01*
X32210Y131834D01*
X32330Y131977D01*
X32454Y132117D01*
X32581Y132254D01*
X32712Y132388D01*
X32846Y132519D01*
X32983Y132646D01*
X33123Y132770D01*
X33266Y132890D01*
X33412Y133007D01*
X33561Y133120D01*
X33712Y133230D01*
X33867Y133336D01*
X34023Y133438D01*
X34183Y133536D01*
X34344Y133630D01*
X34508Y133720D01*
X34674Y133806D01*
X34842Y133888D01*
X35012Y133966D01*
X35184Y134040D01*
X35358Y134109D01*
X35533Y134175D01*
X35710Y134235D01*
X35888Y134292D01*
X36068Y134344D01*
X36248Y134392D01*
X36430Y134435D01*
X36613Y134474D01*
X36797Y134508D01*
X36982Y134538D01*
X37167Y134563D01*
X37353Y134583D01*
X37539Y134599D01*
X37726Y134611D01*
X37913Y134618D01*
X38100Y134620D01*
X38287Y134618D01*
X38474Y134611D01*
X38661Y134599D01*
X38847Y134583D01*
X39033Y134563D01*
X39218Y134538D01*
X39403Y134508D01*
X39587Y134474D01*
X39770Y134435D01*
X39952Y134392D01*
X40132Y134344D01*
X40312Y134292D01*
X40490Y134235D01*
X40667Y134175D01*
X40842Y134109D01*
X41016Y134040D01*
X41188Y133966D01*
X41358Y133888D01*
X41526Y133806D01*
X41692Y133720D01*
X41856Y133630D01*
X42017Y133536D01*
X42177Y133438D01*
X42333Y133336D01*
X42488Y133230D01*
X42639Y133120D01*
X42788Y133007D01*
X42934Y132890D01*
X43077Y132770D01*
X43217Y132646D01*
X43354Y132519D01*
X43488Y132388D01*
X43619Y132254D01*
X43746Y132117D01*
X43870Y131977D01*
X43990Y131834D01*
X44107Y131688D01*
X44220Y131539D01*
X44330Y131388D01*
X44436Y131233D01*
X44538Y131077D01*
X44636Y130917D01*
X44730Y130756D01*
X44820Y130592D01*
X44906Y130426D01*
X44988Y130258D01*
X45066Y130088D01*
X45140Y129916D01*
X45209Y129742D01*
X45275Y129567D01*
X45335Y129390D01*
X45392Y129212D01*
X45444Y129032D01*
X45492Y128852D01*
X45535Y128670D01*
X45574Y128487D01*
X45608Y128303D01*
X45638Y128118D01*
X45663Y127933D01*
X45683Y127747D01*
X45699Y127561D01*
X45711Y127374D01*
X45718Y127187D01*
X45720Y127000D01*
X45718Y126813D01*
X45711Y126626D01*
X45699Y126439D01*
X45683Y126253D01*
X45663Y126067D01*
X45638Y125882D01*
X45608Y125697D01*
X45574Y125513D01*
X45535Y125330D01*
X45492Y125148D01*
X45444Y124968D01*
X45392Y124788D01*
X45335Y124610D01*
X45275Y124433D01*
X45209Y124258D01*
X45140Y124084D01*
X45066Y123912D01*
X44988Y123742D01*
X44906Y123574D01*
X44820Y123408D01*
X44730Y123244D01*
X44636Y123083D01*
X44538Y122923D01*
X44436Y122767D01*
X44330Y122612D01*
X44220Y122461D01*
X44107Y122312D01*
X43990Y122166D01*
X43870Y122023D01*
X43746Y121883D01*
X43619Y121746D01*
X43488Y121612D01*
X43354Y121481D01*
X43217Y121354D01*
X43077Y121230D01*
X42934Y121110D01*
X42788Y120993D01*
X42639Y120880D01*
X42488Y120770D01*
X42333Y120664D01*
X42177Y120562D01*
X42017Y120464D01*
X41856Y120370D01*
X41692Y120280D01*
X41526Y120194D01*
X41358Y120112D01*
X41188Y120034D01*
X41016Y119960D01*
X40842Y119891D01*
X40667Y119825D01*
X40490Y119765D01*
X40312Y119708D01*
X40132Y119656D01*
X39952Y119608D01*
X39770Y119565D01*
X39587Y119526D01*
X39403Y119492D01*
X39218Y119462D01*
X39033Y119437D01*
X38847Y119417D01*
X38661Y119401D01*
X38474Y119389D01*
X38287Y119382D01*
X38100Y119380D01*
X37913Y119382D01*
X37726Y119389D01*
X37539Y119401D01*
X37353Y119417D01*
X37167Y119437D01*
X36982Y119462D01*
X36797Y119492D01*
X36613Y119526D01*
X36430Y119565D01*
X36248Y119608D01*
X36068Y119656D01*
X35888Y119708D01*
X35710Y119765D01*
X35533Y119825D01*
X35358Y119891D01*
X35184Y119960D01*
X35012Y120034D01*
X34842Y120112D01*
X34674Y120194D01*
X34508Y120280D01*
X34344Y120370D01*
X34183Y120464D01*
X34023Y120562D01*
X33867Y120664D01*
X33712Y120770D01*
X33561Y120880D01*
X33412Y120993D01*
X33266Y121110D01*
X33123Y121230D01*
X32983Y121354D01*
X32846Y121481D01*
X32712Y121612D01*
X32581Y121746D01*
X32454Y121883D01*
X32330Y122023D01*
X32210Y122166D01*
X32093Y122312D01*
X31980Y122461D01*
X31870Y122612D01*
X31764Y122767D01*
X31662Y122923D01*
X31564Y123083D01*
X31470Y123244D01*
X31380Y123408D01*
X31294Y123574D01*
X31212Y123742D01*
X31134Y123912D01*
X31060Y124084D01*
X30991Y124258D01*
X30925Y124433D01*
X30865Y124610D01*
X30808Y124788D01*
X30756Y124968D01*
X30708Y125148D01*
X30665Y125330D01*
X30626Y125513D01*
X30592Y125697D01*
X30562Y125882D01*
X30537Y126067D01*
X30517Y126253D01*
X30501Y126439D01*
X30489Y126626D01*
X30482Y126813D01*
X30480Y127000D01*
D13*
X38100Y127000D03*
D12*
X30480Y508000D02*
X30482Y508187D01*
X30489Y508374D01*
X30501Y508561D01*
X30517Y508747D01*
X30537Y508933D01*
X30562Y509118D01*
X30592Y509303D01*
X30626Y509487D01*
X30665Y509670D01*
X30708Y509852D01*
X30756Y510032D01*
X30808Y510212D01*
X30865Y510390D01*
X30925Y510567D01*
X30991Y510742D01*
X31060Y510916D01*
X31134Y511088D01*
X31212Y511258D01*
X31294Y511426D01*
X31380Y511592D01*
X31470Y511756D01*
X31564Y511917D01*
X31662Y512077D01*
X31764Y512233D01*
X31870Y512388D01*
X31980Y512539D01*
X32093Y512688D01*
X32210Y512834D01*
X32330Y512977D01*
X32454Y513117D01*
X32581Y513254D01*
X32712Y513388D01*
X32846Y513519D01*
X32983Y513646D01*
X33123Y513770D01*
X33266Y513890D01*
X33412Y514007D01*
X33561Y514120D01*
X33712Y514230D01*
X33867Y514336D01*
X34023Y514438D01*
X34183Y514536D01*
X34344Y514630D01*
X34508Y514720D01*
X34674Y514806D01*
X34842Y514888D01*
X35012Y514966D01*
X35184Y515040D01*
X35358Y515109D01*
X35533Y515175D01*
X35710Y515235D01*
X35888Y515292D01*
X36068Y515344D01*
X36248Y515392D01*
X36430Y515435D01*
X36613Y515474D01*
X36797Y515508D01*
X36982Y515538D01*
X37167Y515563D01*
X37353Y515583D01*
X37539Y515599D01*
X37726Y515611D01*
X37913Y515618D01*
X38100Y515620D01*
X38287Y515618D01*
X38474Y515611D01*
X38661Y515599D01*
X38847Y515583D01*
X39033Y515563D01*
X39218Y515538D01*
X39403Y515508D01*
X39587Y515474D01*
X39770Y515435D01*
X39952Y515392D01*
X40132Y515344D01*
X40312Y515292D01*
X40490Y515235D01*
X40667Y515175D01*
X40842Y515109D01*
X41016Y515040D01*
X41188Y514966D01*
X41358Y514888D01*
X41526Y514806D01*
X41692Y514720D01*
X41856Y514630D01*
X42017Y514536D01*
X42177Y514438D01*
X42333Y514336D01*
X42488Y514230D01*
X42639Y514120D01*
X42788Y514007D01*
X42934Y513890D01*
X43077Y513770D01*
X43217Y513646D01*
X43354Y513519D01*
X43488Y513388D01*
X43619Y513254D01*
X43746Y513117D01*
X43870Y512977D01*
X43990Y512834D01*
X44107Y512688D01*
X44220Y512539D01*
X44330Y512388D01*
X44436Y512233D01*
X44538Y512077D01*
X44636Y511917D01*
X44730Y511756D01*
X44820Y511592D01*
X44906Y511426D01*
X44988Y511258D01*
X45066Y511088D01*
X45140Y510916D01*
X45209Y510742D01*
X45275Y510567D01*
X45335Y510390D01*
X45392Y510212D01*
X45444Y510032D01*
X45492Y509852D01*
X45535Y509670D01*
X45574Y509487D01*
X45608Y509303D01*
X45638Y509118D01*
X45663Y508933D01*
X45683Y508747D01*
X45699Y508561D01*
X45711Y508374D01*
X45718Y508187D01*
X45720Y508000D01*
X45718Y507813D01*
X45711Y507626D01*
X45699Y507439D01*
X45683Y507253D01*
X45663Y507067D01*
X45638Y506882D01*
X45608Y506697D01*
X45574Y506513D01*
X45535Y506330D01*
X45492Y506148D01*
X45444Y505968D01*
X45392Y505788D01*
X45335Y505610D01*
X45275Y505433D01*
X45209Y505258D01*
X45140Y505084D01*
X45066Y504912D01*
X44988Y504742D01*
X44906Y504574D01*
X44820Y504408D01*
X44730Y504244D01*
X44636Y504083D01*
X44538Y503923D01*
X44436Y503767D01*
X44330Y503612D01*
X44220Y503461D01*
X44107Y503312D01*
X43990Y503166D01*
X43870Y503023D01*
X43746Y502883D01*
X43619Y502746D01*
X43488Y502612D01*
X43354Y502481D01*
X43217Y502354D01*
X43077Y502230D01*
X42934Y502110D01*
X42788Y501993D01*
X42639Y501880D01*
X42488Y501770D01*
X42333Y501664D01*
X42177Y501562D01*
X42017Y501464D01*
X41856Y501370D01*
X41692Y501280D01*
X41526Y501194D01*
X41358Y501112D01*
X41188Y501034D01*
X41016Y500960D01*
X40842Y500891D01*
X40667Y500825D01*
X40490Y500765D01*
X40312Y500708D01*
X40132Y500656D01*
X39952Y500608D01*
X39770Y500565D01*
X39587Y500526D01*
X39403Y500492D01*
X39218Y500462D01*
X39033Y500437D01*
X38847Y500417D01*
X38661Y500401D01*
X38474Y500389D01*
X38287Y500382D01*
X38100Y500380D01*
X37913Y500382D01*
X37726Y500389D01*
X37539Y500401D01*
X37353Y500417D01*
X37167Y500437D01*
X36982Y500462D01*
X36797Y500492D01*
X36613Y500526D01*
X36430Y500565D01*
X36248Y500608D01*
X36068Y500656D01*
X35888Y500708D01*
X35710Y500765D01*
X35533Y500825D01*
X35358Y500891D01*
X35184Y500960D01*
X35012Y501034D01*
X34842Y501112D01*
X34674Y501194D01*
X34508Y501280D01*
X34344Y501370D01*
X34183Y501464D01*
X34023Y501562D01*
X33867Y501664D01*
X33712Y501770D01*
X33561Y501880D01*
X33412Y501993D01*
X33266Y502110D01*
X33123Y502230D01*
X32983Y502354D01*
X32846Y502481D01*
X32712Y502612D01*
X32581Y502746D01*
X32454Y502883D01*
X32330Y503023D01*
X32210Y503166D01*
X32093Y503312D01*
X31980Y503461D01*
X31870Y503612D01*
X31764Y503767D01*
X31662Y503923D01*
X31564Y504083D01*
X31470Y504244D01*
X31380Y504408D01*
X31294Y504574D01*
X31212Y504742D01*
X31134Y504912D01*
X31060Y505084D01*
X30991Y505258D01*
X30925Y505433D01*
X30865Y505610D01*
X30808Y505788D01*
X30756Y505968D01*
X30708Y506148D01*
X30665Y506330D01*
X30626Y506513D01*
X30592Y506697D01*
X30562Y506882D01*
X30537Y507067D01*
X30517Y507253D01*
X30501Y507439D01*
X30489Y507626D01*
X30482Y507813D01*
X30480Y508000D01*
D13*
X38100Y508000D03*
D14*
X444500Y114300D03*
X469900Y114300D03*
D15*
X38100Y38100D03*
X38100Y596900D03*
X977900Y596900D03*
X977900Y38100D03*
D16*
X140500Y152400D03*
X190500Y152400D03*
X240500Y152400D03*
D17*
X931799Y69850D03*
X947801Y69850D03*
X804799Y101600D03*
X820801Y101600D03*
D18*
X711600Y74100D03*
X736600Y74100D03*
X761600Y74100D03*
X711600Y129100D03*
X736600Y129100D03*
X761600Y129100D03*
D19*
X893400Y187700D03*
D20*
X893400Y213100D03*
X868000Y187700D03*
X868000Y213100D03*
X842600Y187700D03*
X842600Y213100D03*
X817200Y187700D03*
X817200Y213100D03*
X791800Y187700D03*
X791800Y213100D03*
X766400Y187700D03*
X766400Y213100D03*
X741000Y187700D03*
X741000Y213100D03*
X715600Y187700D03*
X715600Y213100D03*
X690200Y187700D03*
X690200Y213100D03*
X664800Y187700D03*
X664800Y213100D03*
X639400Y187700D03*
X639400Y213100D03*
X614000Y187700D03*
X614000Y213100D03*
X588600Y187700D03*
X588600Y213100D03*
X563200Y187700D03*
X563200Y213100D03*
X537800Y187700D03*
X537800Y213100D03*
X512400Y187700D03*
X512400Y213100D03*
X487000Y187700D03*
X487000Y213100D03*
X461600Y187700D03*
X461600Y213100D03*
D19*
X893400Y441700D03*
D20*
X893400Y467100D03*
X868000Y441700D03*
X868000Y467100D03*
X842600Y441700D03*
X842600Y467100D03*
X817200Y441700D03*
X817200Y467100D03*
X791800Y441700D03*
X791800Y467100D03*
X766400Y441700D03*
X766400Y467100D03*
X741000Y441700D03*
X741000Y467100D03*
X715600Y441700D03*
X715600Y467100D03*
X690200Y441700D03*
X690200Y467100D03*
X664800Y441700D03*
X664800Y467100D03*
X639400Y441700D03*
X639400Y467100D03*
X614000Y441700D03*
X614000Y467100D03*
X588600Y441700D03*
X588600Y467100D03*
X563200Y441700D03*
X563200Y467100D03*
X537800Y441700D03*
X537800Y467100D03*
X512400Y441700D03*
X512400Y467100D03*
X487000Y441700D03*
X487000Y467100D03*
X461600Y441700D03*
X461600Y467100D03*
D21*
X203200Y266700D03*
X203200Y241300D03*
D22*
X203200Y419100D03*
D21*
X203200Y393700D03*
X203200Y368300D03*
X203200Y317500D03*
X203200Y292100D03*
X203200Y342900D03*
M02*
