G04 EAGLE Gerber RS-274X export*
G75*
%MOMM*%
%FSLAX34Y34*%
%LPD*%
%INSoldermask Bottom*%
%IPPOS*%
%AMOC8*
5,1,8,0,0,1.08239X$1,22.5*%
G01*
%ADD10C,1.828800*%
%ADD11C,2.652400*%
%ADD12P,1.396628X8X22.500000*%
%ADD13C,4.597400*%
%ADD14C,2.336800*%
%ADD15R,1.676400X1.676400*%
%ADD16P,1.814519X8X202.500000*%
%ADD17C,1.803400*%
%ADD18R,1.803400X1.803400*%


D10*
X162600Y561400D03*
X188000Y561400D03*
X213400Y561400D03*
X238800Y561400D03*
X264200Y561400D03*
X289600Y561400D03*
X315000Y561400D03*
X340400Y561400D03*
X365800Y561400D03*
X391200Y561400D03*
X416600Y561400D03*
X442000Y561400D03*
X467400Y561400D03*
X492800Y561400D03*
X518200Y561400D03*
X543600Y561400D03*
D11*
X107600Y251400D03*
X857600Y251400D03*
X107600Y561400D03*
X857600Y561400D03*
D12*
X444500Y114300D03*
X469900Y114300D03*
D13*
X38100Y38100D03*
X38100Y596900D03*
X977900Y596900D03*
X977900Y38100D03*
D14*
X140500Y152400D03*
X190500Y152400D03*
X240500Y152400D03*
D15*
X893400Y187700D03*
D16*
X893400Y213100D03*
X868000Y187700D03*
X868000Y213100D03*
X842600Y187700D03*
X842600Y213100D03*
X817200Y187700D03*
X817200Y213100D03*
X791800Y187700D03*
X791800Y213100D03*
X766400Y187700D03*
X766400Y213100D03*
X741000Y187700D03*
X741000Y213100D03*
X715600Y187700D03*
X715600Y213100D03*
X690200Y187700D03*
X690200Y213100D03*
X664800Y187700D03*
X664800Y213100D03*
X639400Y187700D03*
X639400Y213100D03*
X614000Y187700D03*
X614000Y213100D03*
X588600Y187700D03*
X588600Y213100D03*
X563200Y187700D03*
X563200Y213100D03*
X537800Y187700D03*
X537800Y213100D03*
X512400Y187700D03*
X512400Y213100D03*
X487000Y187700D03*
X487000Y213100D03*
X461600Y187700D03*
X461600Y213100D03*
D15*
X893400Y441700D03*
D16*
X893400Y467100D03*
X868000Y441700D03*
X868000Y467100D03*
X842600Y441700D03*
X842600Y467100D03*
X817200Y441700D03*
X817200Y467100D03*
X791800Y441700D03*
X791800Y467100D03*
X766400Y441700D03*
X766400Y467100D03*
X741000Y441700D03*
X741000Y467100D03*
X715600Y441700D03*
X715600Y467100D03*
X690200Y441700D03*
X690200Y467100D03*
X664800Y441700D03*
X664800Y467100D03*
X639400Y441700D03*
X639400Y467100D03*
X614000Y441700D03*
X614000Y467100D03*
X588600Y441700D03*
X588600Y467100D03*
X563200Y441700D03*
X563200Y467100D03*
X537800Y441700D03*
X537800Y467100D03*
X512400Y441700D03*
X512400Y467100D03*
X487000Y441700D03*
X487000Y467100D03*
X461600Y441700D03*
X461600Y467100D03*
D17*
X203200Y266700D03*
X203200Y241300D03*
D18*
X203200Y419100D03*
D17*
X203200Y393700D03*
X203200Y368300D03*
X203200Y317500D03*
X203200Y292100D03*
X203200Y342900D03*
M02*
