M48
;GenerationSoftware,Autodesk,EAGLE,9.6.2*%
;CreationDate,2023-12-10T20:47:28Z*%
FMAT,2
ICI,OFF
METRIC,TZ,000.000
T7C0.305
T6C0.813
T5C0.889
T4C1.000
T3C1.200
T2C2.500
T1C3.175
%
G90
M71
T1
X97790Y59690
X3810Y59690
X97790Y3810
X3810Y3810
T2
X10760Y25140
X85760Y25140
X10760Y56140
X85760Y56140
T3
X24050Y15240
X14050Y15240
X19050Y15240
T4
X16260Y56140
X18800Y56140
X21340Y56140
X23880Y56140
X26420Y56140
X28960Y56140
X31500Y56140
X34040Y56140
X36580Y56140
X39120Y56140
X41660Y56140
X44200Y56140
X46740Y56140
X49280Y56140
X51820Y56140
X54360Y56140
T5
X20320Y41910
X20320Y39370
X20320Y36830
X20320Y31750
X20320Y29210
X20320Y34290
X89340Y18770
X89340Y21310
X86800Y18770
X86800Y21310
X84260Y18770
X84260Y21310
X81720Y18770
X81720Y21310
X79180Y18770
X79180Y21310
X76640Y18770
X76640Y21310
X74100Y18770
X74100Y21310
X71560Y18770
X71560Y21310
X69020Y18770
X69020Y21310
X66480Y18770
X66480Y21310
X63940Y18770
X63940Y21310
X61400Y18770
X61400Y21310
X58860Y18770
X58860Y21310
X56320Y18770
X56320Y21310
X53780Y18770
X53780Y21310
X51240Y18770
X51240Y21310
X48700Y18770
X48700Y21310
X46160Y18770
X46160Y21310
X89340Y44170
X89340Y46710
X86800Y44170
X86800Y46710
X84260Y44170
X84260Y46710
X81720Y44170
X81720Y46710
X79180Y44170
X79180Y46710
X76640Y44170
X76640Y46710
X74100Y44170
X74100Y46710
X71560Y44170
X71560Y46710
X69020Y44170
X69020Y46710
X66480Y44170
X66480Y46710
X63940Y44170
X63940Y46710
X61400Y44170
X61400Y46710
X58860Y44170
X58860Y46710
X56320Y44170
X56320Y46710
X53780Y44170
X53780Y46710
X51240Y44170
X51240Y46710
X48700Y44170
X48700Y46710
X46160Y44170
X46160Y46710
X20320Y26670
X20320Y24130
T6
X44450Y11430
X46990Y11430
T7
X48895Y11430
X83185Y10160
X92075Y6985
X73660Y5080
M30